<svg width="80" height="80" viewBox="0 0 80 80" fill="none" xmlns="http://www.w3.org/2000/svg">
<path d="M69.2432 22.3904C69.8806 22.3904 70.4384 21.8326 70.4384 21.1952V10.5976C70.4384 9.96011 69.8806 9.40234 69.2432 9.40234H10.5977C9.9603 9.40234 9.40253 9.96011 9.40253 10.5976V21.1952C9.40253 21.8326 9.9603 22.3904 10.5977 22.3904H14.9005V30.1195H10.6774C10.04 30.1195 9.48221 30.6772 9.48221 31.3147V35.8565C9.48221 36.494 10.04 37.0517 10.6774 37.0517H14.9005V57.2908H10.4384C9.80093 57.2908 9.24316 57.8486 9.24316 58.486V69.0836C9.24316 69.7211 9.80093 70.2788 10.4384 70.2788H69.1635C69.8009 70.2788 70.3587 69.7211 70.3587 69.0836V58.486C70.3587 57.8486 69.8009 57.2908 69.1635 57.2908H65.3388V22.3904H69.2432ZM11.793 11.7928H68.1276V20H48.0479H31.793H11.793V11.7928ZM32.9882 22.3904H46.8527V35.2191H32.9882V22.3904ZM17.291 22.3904H30.6774V32.5896H25.6575V31.3147C25.6575 30.6772 25.0997 30.1195 24.4623 30.1195H17.291C17.291 30.0398 17.291 22.3904 17.291 22.3904ZM11.8726 32.4302H23.1874V34.6613H11.8726V32.4302ZM67.8886 67.8884H11.6336V59.6812H67.9683C67.8886 59.6812 67.8886 67.8884 67.8886 67.8884ZM34.2631 51.3147V46.7729H45.9762V51.3147C45.9762 54.1832 43.3467 56.5737 40.0798 56.5737C36.8926 56.5737 34.2631 54.2629 34.2631 51.3147ZM62.9483 57.2908H45.2591C47.1714 55.8565 48.3667 53.7051 48.3667 51.3147V45.5776C48.3667 44.9402 47.8089 44.3824 47.1714 44.3824H33.0679C32.4304 44.3824 31.8726 44.9402 31.8726 45.5776V51.3147C31.8726 53.7051 33.0679 55.8565 34.9802 57.2908H17.291V37.0517H24.4623C25.0997 37.0517 25.6575 36.494 25.6575 35.8565V34.9003H30.6774V36.3346C30.6774 36.9721 31.2352 37.5298 31.8726 37.5298H48.1276C48.7651 37.5298 49.3228 36.9721 49.3228 36.3346V22.3904H62.9483V57.2908Z" fill="#6BB7CC"/>
</svg>
