<svg width="80" height="80" viewBox="0 0 80 80" fill="none" xmlns="http://www.w3.org/2000/svg">
<path d="M59.1236 20.9561V14.4223C59.1236 13.7848 58.5658 13.2271 57.9283 13.2271H12.4303C11.7929 13.2271 11.2351 13.7848 11.2351 14.4223V39.3625C11.2351 51.3944 14.9004 62.231 21.1156 68.5259C21.3546 68.7649 21.6734 68.8446 21.9921 68.8446H48.3666C48.6853 68.8446 49.004 68.6852 49.2431 68.5259C53.4662 64.2231 56.5738 57.8486 58.0877 50.3585C64.5419 50.2788 69.8008 45.0199 69.8008 38.486V32.749C69.8008 26.6135 65.0996 21.5139 59.1236 20.9561ZM13.6255 15.6175H56.7331V39.3625C56.7331 46.3745 55.3785 53.0677 52.9084 58.5657H17.3706C14.9801 53.0677 13.5459 46.3745 13.5459 39.3625L13.6255 15.6175ZM47.8088 66.4541H22.4702C21.0359 64.9402 19.6813 63.0279 18.5658 60.9561H51.7132C50.5977 63.1075 49.3228 64.9402 47.8088 66.4541ZM67.4104 38.486C67.4104 43.5059 63.4263 47.6494 58.4861 47.8884C58.8845 45.0996 59.1236 42.231 59.1236 39.2828V23.3466C63.7451 23.9043 67.3307 27.8884 67.3307 32.749L67.4104 38.486Z" fill="#6BB7CC"/>
</svg>
