<svg width="80" height="80" viewBox="0 0 80 80" fill="none" xmlns="http://www.w3.org/2000/svg">
<path d="M80 0H0V80H80V0Z" fill="white"/>
<path d="M65.7371 7.72908H41.0359V1.19522C41.0359 0.557769 40.4781 0 39.8407 0C39.2032 0 38.6454 0.557769 38.6454 1.19522V7.72908H13.9442C13.3068 7.72908 12.749 8.28685 12.749 8.9243V14.9004V55.3785C12.749 56.0159 13.3068 56.5737 13.9442 56.5737H27.6494L15.2191 77.9283C14.9004 78.4861 15.0598 79.2032 15.6175 79.6016C15.7769 79.6813 16.016 79.761 16.255 79.761C16.6534 79.761 17.0518 79.5219 17.2909 79.2032L30.4383 56.5737H38.6454V74.1036C38.6454 74.741 39.2032 75.2988 39.8407 75.2988C40.4781 75.2988 41.0359 74.741 41.0359 74.1036V56.5737H49.243L62.3905 79.2032C62.6295 79.6016 63.0279 79.761 63.4263 79.761C63.6654 79.761 63.8247 79.6813 64.0638 79.6016C64.6215 79.2829 64.8606 78.5657 64.4622 77.9283L52.0319 56.494H65.7371C66.3745 56.494 66.9323 55.9363 66.9323 55.2988V14.9004V8.9243C66.9323 8.28685 66.4542 7.72908 65.7371 7.72908ZM64.5419 10.1195V13.7052H15.1395V10.1195H64.5419ZM64.5419 54.1036H15.1395V16.0956H64.5419V54.1036Z" fill="#6BB7CC"/>
</svg>
