<svg width="80" height="80" viewBox="0 0 80 80" fill="none" xmlns="http://www.w3.org/2000/svg">
<path d="M66.1357 11.3942C61.6735 6.85235 54.3428 6.85235 49.801 11.3145C45.9763 15.0595 45.2592 20.9559 48.048 25.4978C48.048 25.5775 48.1277 25.5775 48.1277 25.6571L55.6177 38.2468H47.4106C42.789 38.2468 39.044 41.9918 39.044 46.6133C39.044 51.2348 42.789 54.9799 47.4106 54.9799H49.0839C53.4663 54.9799 57.052 58.5655 57.052 62.948C57.052 67.3304 53.4663 70.9161 49.0839 70.9161H21.9922L30.1197 57.9281C30.1197 57.8484 30.1994 57.7687 30.1994 57.7687C33.4663 52.3504 31.793 45.1791 26.295 41.9121C24.4623 40.7966 22.3906 40.2388 20.3189 40.2388C13.9444 40.2388 8.76514 45.3384 8.76514 51.7129C8.76514 53.8643 9.32291 55.936 10.4384 57.7687L10.5181 57.9281L19.1237 72.3504C19.1237 72.4301 19.2034 72.43 19.2831 72.5097C19.4424 72.9878 19.9205 73.3065 20.3986 73.3065H49.0839C54.8209 73.3065 59.4424 68.685 59.4424 62.948C59.4424 57.2109 54.8209 52.5894 49.0839 52.5894H47.4106C44.1436 52.5894 41.4345 49.8802 41.4345 46.6133C41.4345 43.3464 44.1436 40.6372 47.4106 40.6372H57.6098C57.6894 40.6372 57.7691 40.6372 57.8488 40.6372C58.2472 40.5575 58.5659 40.3982 58.7253 40.0794L67.7293 25.6571C67.809 25.5775 67.809 25.4978 67.809 25.4978C70.5978 20.9559 69.8807 15.1392 66.1357 11.3942ZM12.6695 56.8125C12.6695 56.7328 12.5898 56.6532 12.5898 56.6532C9.88067 52.3504 11.1556 46.7727 15.4584 44.0635C16.8926 43.1073 18.6456 42.6292 20.3189 42.6292C25.4185 42.6292 29.4823 46.7727 29.4823 51.7926C29.4823 53.5456 29.0042 55.2189 28.048 56.6532C28.048 56.7328 27.9683 56.8125 27.9683 56.8125L20.1596 69.3225L12.6695 56.8125ZM67.0918 19.5217C67.0918 21.2747 66.6138 22.948 65.6576 24.3822C65.6576 24.4619 65.5779 24.5416 65.5779 24.5416L57.7691 37.0516L50.2791 24.4619L50.1994 24.3822C47.4902 20.0794 48.7651 14.5018 53.0679 11.7926C54.5022 10.8364 56.2552 10.3583 58.0082 10.3583C63.0281 10.3583 67.0918 14.4221 67.0918 19.5217Z" fill="#6BB7CC"/>
<path d="M57.9281 13.9441C55.1393 14.0238 52.9879 16.4142 53.0676 19.2031C53.1473 21.8325 55.2986 23.9839 57.9281 24.0636C60.717 24.0636 62.9481 21.8325 62.9481 19.0437C63.0277 16.1752 60.717 13.9441 57.9281 13.9441ZM60.6373 18.964C60.6373 20.3983 59.4421 21.5935 58.0078 21.5935C57.2907 21.5935 56.6532 21.2748 56.0955 20.7967C55.0596 19.7608 55.0596 18.0875 56.0955 17.0517C56.5736 16.5736 57.2907 16.2548 58.0078 16.2548C58.7249 16.2548 59.3624 16.5736 59.9202 17.0517C60.3186 17.6094 60.6373 18.2469 60.6373 18.964Z" fill="#6BB7CC"/>
<path d="M20.3188 56.3346C23.1077 56.3346 25.4184 54.1035 25.4184 51.3147C25.4184 48.5258 23.1874 46.2151 20.3188 46.2151C17.53 46.2151 15.2192 48.4462 15.2192 51.3147C15.2989 54.0239 17.53 56.3346 20.3188 56.3346ZM17.6894 51.235C17.6894 50.5179 18.0081 49.8804 18.4862 49.3227C18.9643 48.8446 19.6814 48.5258 20.3985 48.5258C21.8328 48.5258 23.028 49.7211 23.028 51.235C23.028 52.6693 21.8328 53.8645 20.3188 53.8645C19.6017 53.8645 18.9643 53.5458 18.4065 53.0677C18.0081 52.6693 17.6894 51.9521 17.6894 51.235Z" fill="#6BB7CC"/>
</svg>
