<svg width="80" height="80" viewBox="0 0 80 80" fill="none" xmlns="http://www.w3.org/2000/svg">
<path d="M40.2389 45.9763C24.7011 45.9763 12.0317 58.6456 12.0317 74.1835C12.0317 74.8209 12.5895 75.3787 13.227 75.3787H67.1712C67.8086 75.3787 68.3664 74.8209 68.3664 74.1835C68.3664 58.6456 55.7768 45.9763 40.2389 45.9763ZM14.4222 72.9883C15.0596 59.2831 26.3744 48.3668 40.1592 48.3668C53.9441 48.3668 65.3385 59.2831 65.976 72.9883H14.4222Z" fill="#6BB7CC"/>
<path d="M39.7608 10.6775C30.8365 10.6775 23.5059 17.9285 23.5059 26.9325C23.5059 35.9364 30.7569 43.1874 39.7608 43.1874C48.6851 43.1874 56.0158 35.9364 56.0158 26.9325C56.0158 17.9285 48.6851 10.6775 39.7608 10.6775ZM39.7608 40.7173C32.1114 40.7173 25.8963 34.5022 25.8963 26.8528C25.8963 19.2034 32.1114 12.9882 39.7608 12.9882C47.4102 12.9882 53.6254 19.2034 53.6254 26.8528C53.6254 34.5022 47.4102 40.7173 39.7608 40.7173Z" fill="#6BB7CC"/>
<path d="M20 35.7771C20.6374 35.7771 21.1952 35.2193 21.1952 34.5819V19.1237C21.1952 19.044 21.1952 18.9643 21.1952 18.8847C24.3824 11.4743 31.6334 6.69342 39.7609 6.69342C48.0478 6.69342 55.3784 11.6337 58.486 19.2831V34.5022C57.4502 36.9723 56.0159 39.2034 54.1832 41.1157C53.7051 41.5938 53.7051 42.311 54.1832 42.789C54.4223 43.0281 54.741 43.1078 55.0597 43.1078C55.3784 43.1078 55.6972 43.0281 55.9362 42.789C57.9282 40.7173 59.5219 38.4066 60.6374 35.7771H61.3545C66.2948 35.7771 70.2788 31.793 70.2788 26.8528C70.2788 21.9125 66.2948 17.9285 61.3545 17.9285H60.478C56.8924 9.64162 48.8446 4.30298 39.7609 4.30298C30.6772 4.30298 22.6294 9.64162 19.0438 17.9285H18.3266C13.3864 17.9285 9.40234 21.9125 9.40234 26.8528C9.40234 31.793 13.3864 35.7771 18.3266 35.7771H20ZM67.8884 26.8528C67.8884 30.4384 64.9402 33.3866 61.3545 33.3866H60.8765V20.3189H61.3545C64.9402 20.3189 67.8884 23.2671 67.8884 26.8528ZM11.7928 26.8528C11.7928 23.2671 14.741 20.3189 18.3266 20.3189H18.8047V33.3866H18.3266C14.741 33.3866 11.7928 30.4384 11.7928 26.8528Z" fill="#6BB7CC"/>
</svg>
