<svg width="80" height="80" viewBox="0 0 80 80" fill="none" xmlns="http://www.w3.org/2000/svg">
<path d="M69.7209 66.6136L61.6731 13.5459V13.4662V13.3865C61.6731 13.3068 61.6731 13.3068 61.5934 13.2271C61.5934 13.2271 61.5934 13.1475 61.5137 13.1475C61.5137 13.0678 61.434 13.0678 61.434 12.9881C61.434 12.9881 61.434 12.9084 61.3543 12.9084C61.2747 12.8287 61.2747 12.8287 61.195 12.7491C61.1153 12.6694 61.0356 12.6694 60.9559 12.5897H60.8763C60.7966 12.5897 60.7966 12.5897 60.7169 12.51H60.6372C60.5575 12.51 60.5575 12.51 60.4779 12.51H12.3504C11.7129 12.51 11.1552 13.0678 11.1552 13.7052V23.9841C11.1552 24.6216 11.7129 25.1793 12.3504 25.1793H15.6173L8.36631 66.5339C8.28662 66.8526 8.36631 67.251 8.60535 67.4901C8.84439 67.7291 9.16312 67.8885 9.48184 67.8885H68.6053C68.9241 67.8885 69.3225 67.7291 69.4818 67.4901C69.7209 67.251 69.8006 66.9323 69.7209 66.6136ZM18.0077 25.1793H48.9241C49.5615 25.1793 50.1193 24.6216 50.1193 23.9841C50.1193 23.3467 49.5615 22.7889 48.9241 22.7889H13.5456V14.9004H59.1233L52.2707 65.5777H10.9161L18.0077 25.1793ZM54.6611 65.5777L60.5575 22.0718L67.1711 65.5777H54.6611Z" fill="#6BB7CC"/>
</svg>
