<svg width="80" height="80" viewBox="0 0 80 80" fill="none" xmlns="http://www.w3.org/2000/svg">
<path d="M39.9205 45.8167C25.3388 45.8167 13.4663 57.6892 13.4663 72.2708C13.4663 72.9083 14.0241 73.4661 14.6615 73.4661H65.2591C65.8966 73.4661 66.4543 72.9083 66.4543 72.2708C66.3747 57.6892 54.5022 45.8167 39.9205 45.8167ZM50.4384 50.5975V71.0756H28.8448V50.8366C32.1914 49.0836 35.9364 48.1274 39.9205 48.1274C43.6655 48.2071 47.2512 49.0836 50.4384 50.5975ZM26.4544 52.2708V71.0756H15.8567C16.2552 63.2669 20.3189 56.4143 26.4544 52.2708ZM52.8289 71.0756V51.9521C59.2034 56.0159 63.5858 63.0278 63.9842 71.0756H52.8289Z" fill="#6BB7CC"/>
<path d="M39.6817 40.2391C49.8012 40.2391 58.0084 32.0319 58.0084 21.9124C58.0084 21.4343 58.0084 21.0359 57.9287 20.6375H65.1797C65.8171 20.6375 66.3749 20.0797 66.3749 19.4423C66.3749 18.8048 65.8171 18.247 65.1797 18.247H57.61C55.857 9.88051 48.5263 3.58569 39.6817 3.58569C29.5622 3.58569 21.355 11.7929 21.355 21.9124C21.355 32.0319 29.5622 40.2391 39.6817 40.2391ZM39.6817 5.97613C47.1717 5.97613 53.4665 11.2351 55.1398 18.247H24.1438C25.8171 11.1554 32.112 5.97613 39.6817 5.97613ZM23.7454 20.5578H55.4586C55.4586 20.9562 55.5382 21.4343 55.5382 21.8327C55.5382 30.5976 48.3669 37.769 39.602 37.769C30.8371 37.769 23.6657 30.5976 23.6657 21.8327C23.7454 21.4343 23.7454 21.0359 23.7454 20.5578Z" fill="#6BB7CC"/>
</svg>
