<svg width="459" height="143" viewBox="0 0 459 143" fill="none" xmlns="http://www.w3.org/2000/svg">
<path d="M321.847 87.7158V130.816H366.627V87.7158H321.847ZM324.11 99.9224H342.728V105.786H337.928V103.694H333.574V107.534H336.865V111.238H333.574V115.009H335.528V118.781H324.11V115.009H325.619V103.694H324.11V99.9224ZM343.551 99.9224H354.832C358.535 99.9224 361.141 100.334 362.719 101.191C364.296 102.048 365.084 103.42 365.084 105.374C365.084 106.403 364.844 107.294 364.364 108.014C363.884 108.735 363.13 109.352 362.136 109.832L365.222 114.975H366.422V118.747H358.947L354.832 110.963H352.466V114.975H354.524V118.747H343.551V114.975H345.129V103.694H343.551V99.9224ZM352.809 103.66C352.638 103.66 352.535 103.694 352.432 103.694V107.706H353.084C354.318 107.706 355.244 107.534 355.827 107.226C356.409 106.917 356.684 106.403 356.684 105.717C356.684 105.031 356.375 104.551 355.792 104.208C355.209 103.866 354.318 103.728 353.118 103.728C353.049 103.66 352.946 103.66 352.809 103.66ZM368.273 87.7158V130.816H413.054V87.7158H368.273ZM372.491 99.9224H386.549V103.66H385.006L388.983 114.975H390.115V118.747H380.034V114.975H381.543L380.72 112.198H375.68L374.719 114.975H376.057V118.747H368.89V114.975H369.988L373.999 103.66H372.491V99.9224ZM390.423 99.9224H399.51L406.196 110.895V103.66H404.413V99.9224H412.128V103.66H410.619V118.747H403.556L396.321 107.054V114.975H398.138V118.747H390.423V114.975H391.932V103.694H390.423V99.9224ZM378.423 104.62L376.502 110.003H380.068C380.034 109.969 378.423 104.62 378.423 104.62ZM414.22 87.7158V130.816H459V87.7158H414.22ZM414.837 99.9224H425.638V103.694H424.129V114.975H425.638V118.747H414.837V114.975H416.345V103.694H414.837V99.9224ZM427.798 99.9224H436.918V103.66H435.684L431.912 107.534L438.256 114.975H438.701V118.747H428.003V114.975H429.409L424.506 109.043L429.752 103.66H427.798V99.9224ZM438.873 99.9224H457.183V105.786H452.451V103.694H448.165V107.534H451.834V111.238H448.165V115.009H452.451V112.609H457.183V118.781H438.873V115.009H440.381V103.694H438.873V99.9224Z" fill="white"/>
<path d="M154.94 112.804C154.94 115.944 152.988 117.473 150.987 117.473C149.035 117.473 147.082 115.928 147.082 112.804C147.082 109.762 148.986 108.087 150.987 108.087C153.02 108.087 154.94 109.762 154.94 112.804ZM164.652 112.707C164.652 106.899 159.886 100.131 151.036 100.131C142.055 100.131 137.37 107.078 137.37 112.756C137.37 118.515 142.088 125.429 150.987 125.429C159.886 125.429 164.652 118.563 164.652 112.707Z" fill="white"/>
<path d="M136.508 109.534V101.856C134.572 100.782 132.213 100.147 129.48 100.147C120.483 100.147 115.814 107.094 115.814 112.772C115.814 118.531 120.532 125.428 129.431 125.428C132.197 125.428 134.556 124.761 136.508 123.672V115.993C136.508 115.993 133.043 117.376 131.042 117.376C127.349 117.376 125.527 115.082 125.527 112.723C125.527 110.429 127.349 108.119 131.025 108.119C133.075 108.119 136.508 109.534 136.508 109.534Z" fill="white"/>
<path d="M6.7677 122.435L7.10934 122.663C9.69601 124.404 12.8033 125.429 16.1545 125.429C25.0859 125.429 32.3253 118.189 32.3253 109.258C32.3253 104.442 30.2267 100.131 26.8917 97.1704L6.16577 108.2V113.65L26.5663 102.832C27.7214 104.703 28.4046 106.915 28.4046 109.274C28.4046 116.025 22.9222 121.492 16.1871 121.492C14.2837 121.492 12.4942 121.052 10.8836 120.288L6.7677 122.435Z" fill="white"/>
<path d="M21.4254 98.2443C19.8311 97.4797 18.0416 97.0567 16.1545 97.0567C9.40311 97.0567 3.93694 102.523 3.93694 109.274C3.93694 111.633 4.60395 113.829 5.759 115.7L5.74273 115.717L26.2734 104.817L26.2571 110.267L5.41736 121.345C2.09862 118.385 0 114.073 0 109.274C0 100.343 7.23942 93.1035 16.1707 93.1035C19.5058 93.1035 22.613 94.1284 25.1997 95.8691L25.5413 96.0969L21.4254 98.2443Z" fill="white"/>
<path d="M42.1188 123.281C43.3877 123.965 46.072 125.429 51.7659 125.429C62.926 125.429 63.8208 117.604 63.8208 116.058C63.8208 111.096 59.5422 108.64 57.2158 107.322C54.3526 105.663 52.5468 104.67 52.5468 103.109C52.5468 102.246 53.3277 101.108 55.1335 101.108C57.8666 101.108 60.7786 103.515 62.4543 105.11V96.6988C60.5021 94.8768 57.1833 93.1035 53.0837 93.1035C46.8041 93.1035 42.249 96.8778 42.249 102.897C42.249 104.215 42.249 107.908 47.341 110.95C51.3918 113.358 52.7095 114.138 52.7095 115.456C52.7095 116.091 52.2052 117.408 49.3908 117.408C46.7553 117.408 44.2988 116.318 42.1025 114.822V123.281" fill="white"/>
<path d="M102.93 106.606C104.622 106.606 106.216 108.005 106.216 110.527H99.6925C99.6763 108.005 101.254 106.606 102.93 106.606ZM114.627 114.545C115.18 106.102 109.031 100.262 102.686 100.262C95.5116 100.262 90.1755 105.598 90.1755 112.626C90.1755 119.8 95.658 125.429 103.939 125.429C108.624 125.429 111.682 124.729 114.399 123.395L114.448 117.262C111.699 118.645 108.201 119.361 105.728 119.361C102.019 119.361 99.5136 117.034 99.6925 114.545H114.627Z" fill="white"/>
<path d="M79.7801 116.611C79.65 118.938 78.1858 120.109 76.315 120.109C74.802 120.109 73.7283 119.068 73.7283 118.043C73.7283 116.53 74.6881 116.058 76.5265 115.635C77.649 115.375 78.7878 115.082 79.7964 114.561V116.611H79.7801ZM90.0617 118.319C88.8579 118.157 88.4186 117.652 88.4512 115.001V109.502C88.4512 102.344 81.9764 100.131 77.4538 100.131C75.225 100.131 69.2382 100.701 67.0583 104.524C66.2611 105.939 65.9358 106.866 65.8707 108.526H73.5331C74.0862 106.899 75.404 106.037 76.7705 106.037C77.9255 106.037 79.0318 106.639 79.7151 107.777C79.8127 107.956 79.8777 108.152 79.8777 108.363C79.8777 109.86 78.8854 110.153 77.6978 110.38C73.2565 111.243 64.8621 110.966 64.8621 118.417C64.8621 122.956 68.4411 125.412 72.8498 125.412C75.6642 125.412 78.1533 124.908 79.9916 122.728L80.1868 122.988C81.0003 123.769 82.4482 124.957 86.9545 124.957H90.0292L90.0617 118.319Z" fill="white"/>
<path d="M364.379 21.8161C363.706 18.6613 360.621 16.6432 357.466 17.3159C354.311 17.9886 352.293 21.097 352.966 24.2518C353.638 27.4066 356.724 29.4248 359.879 28.7521C363.033 28.0794 365.051 24.9709 364.379 21.8161Z" fill="white"/>
<path d="M232.085 1.07764V11.0756H224.013V16.179H232.085V26.3857C232.085 29.4478 234.103 33.9944 239.694 33.9944H242.246V28.9142H239.694C238.325 28.9142 237.908 28.3343 237.606 27.824C237.281 27.244 237.189 26.5481 237.189 26.3162V16.179H243.22V11.0756H237.189V1.07764H232.085ZM246.444 1.07764V33.9712H251.548V21.2592C251.548 21.1896 251.571 19.7514 252.267 18.4523C253.102 16.8981 254.471 16.1558 256.582 16.1558C258.716 16.1558 260.061 16.8749 260.896 18.4523C261.615 19.7978 261.685 21.2592 261.685 21.2592V33.948H266.742V21.2592C266.742 17.1765 264.051 11.0524 256.605 11.0524C254.563 11.0524 252.916 11.5164 251.548 12.2587V1.07764H246.444ZM403.698 1.07764V33.9712H408.755V1.07764H403.698ZM358.626 10.7045C355.541 10.7277 352.432 11.8875 350.089 14.2536C348.721 15.6223 347.7 17.2925 347.12 19.1482C347.329 19.357 350.576 22.6046 351.481 23.5093C351.272 21.3752 352.015 19.2642 353.569 17.7332C356.329 14.9727 360.899 14.9263 363.706 17.6404C363.706 17.6404 374.586 28.5199 375.351 29.2854V22.3494C374.539 21.5375 367.186 14.1376 367.186 14.1376C364.843 11.8179 361.734 10.6813 358.626 10.7045ZM280.776 11.0756C274.397 11.0756 269.178 16.295 269.178 22.6742C269.178 29.0534 274.397 34.2728 280.776 34.2728C283.467 34.2728 286.088 33.2985 288.176 31.5587L284.905 27.6616C283.745 28.6359 282.307 29.1694 280.799 29.1694C277.227 29.1694 274.304 26.2466 274.304 22.6742C274.304 19.0786 277.227 16.179 280.799 16.179C283.467 16.179 285.74 17.8028 286.738 20.1225H278.108V25.2259H292.375V22.6742C292.328 16.295 287.155 11.0756 280.776 11.0756ZM304.832 11.0756C297.385 11.0756 294.694 17.1765 294.694 21.2824V33.9712H299.798V21.2592C299.798 21.2592 299.821 19.7978 300.517 18.4523C301.352 16.8981 302.697 16.1558 304.832 16.1558H307.383V11.0524H304.832V11.0756ZM317.892 11.0756C311.373 11.0756 308.984 16.4574 308.984 20.0297V33.9712H314.041V20.0297C314.041 20.0529 314.064 18.8699 314.621 17.8492C315.015 17.1301 315.804 16.179 317.892 16.179C319.979 16.179 320.722 17.1301 321.116 17.8492C321.65 18.8467 321.696 19.9601 321.696 20.0297V33.9712H326.753V20.0297C326.753 20.0529 326.776 18.8699 327.333 17.8492C327.727 17.1301 328.47 16.179 330.557 16.179C332.645 16.179 333.411 17.1301 333.782 17.8492C334.338 18.8699 334.408 20.0297 334.408 20.0297V33.9712H339.465V20.0297C339.465 16.4574 337.076 11.0756 330.557 11.0756C327.681 11.0756 325.616 12.1195 324.201 13.5809C322.763 12.1195 320.768 11.0756 317.892 11.0756ZM389.13 11.0756C382.821 11.0756 377.671 16.2022 377.624 22.535V44.178H382.728V32.2082V22.6278V22.535C382.797 19.0322 385.627 16.179 389.13 16.179C392.679 16.179 395.579 19.0786 395.579 22.6278C395.579 26.177 392.679 29.0766 389.13 29.0766C387.53 29.0766 386.091 28.4735 384.978 27.5224V33.3913C386.277 33.9016 387.669 34.18 389.13 34.18C395.486 34.18 400.682 28.9838 400.682 22.6278C400.682 16.2718 395.486 11.0756 389.13 11.0756ZM423.74 11.0756C417.384 11.0756 412.235 16.2718 412.235 22.6278C412.235 28.9838 417.384 34.18 423.74 34.18C425.225 34.18 426.663 33.9016 427.962 33.3913V27.5224C426.826 28.4967 425.341 29.0766 423.74 29.0766C420.191 29.0766 417.338 26.177 417.338 22.6278C417.338 19.0786 420.191 16.179 423.74 16.179C427.243 16.179 430.12 19.0322 430.189 22.535V22.6278V32.2082V33.9712H435.293V22.5118C435.223 16.2022 430.05 11.0756 423.74 11.0756ZM448.816 11.0756C441.37 11.0756 438.679 17.1765 438.679 21.2824V33.9712H443.736V21.2592C443.736 21.2592 443.806 19.7978 444.525 18.4523C445.36 16.8981 446.729 16.1558 448.84 16.1558C450.974 16.1558 452.319 16.8749 453.154 18.4523C453.873 19.7978 453.943 21.2592 453.943 21.2592V33.948H459V21.2592C458.954 17.1765 456.263 11.0756 448.816 11.0756ZM342.04 16.7357V23.7181C342.852 24.53 350.205 31.8835 350.205 31.8835C354.938 36.5461 362.639 36.4765 367.325 31.7907C368.693 30.4221 369.714 28.7519 370.294 26.8961C370.085 26.6873 366.838 23.4397 365.933 22.535C366.142 24.6924 365.399 26.8265 363.845 28.3575C361.085 31.118 356.585 31.1644 353.754 28.4503C353.731 28.4503 342.805 17.5244 342.04 16.7357Z" fill="white"/>
<path d="M354.729 21.8391H357.489V19.0786H359.855V21.8391H362.616V24.2052H359.855V26.9656H357.489V24.2284H354.729V21.8391Z" fill="#101820"/>
<path d="M264.729 76.9409L254.116 94.5766L245.949 81.4629L237.343 94.5625L227.564 76.9409H215.411L234.333 110.63L242.967 96.4561L251.884 110.474L271.088 76.9409H264.729Z" fill="white"/>
<path d="M249.608 141.591H239.434V117.427L231.521 131.841L223.748 117.427V141.591H218.237V104.991H227.281L234.347 117.427L242.967 103.437L249.608 114.035V141.591Z" fill="white" stroke="#101820"/>
<path d="M253.283 114.036L258.653 104.992H263.175H269.392V114.884H263.175V120.395H268.827V125.341H263.175V141.591H253.283V114.036Z" fill="white" stroke="#101820"/>
<path fill-rule="evenodd" clip-rule="evenodd" d="M27.679 0.527832L17.2664 42.8373H21.6159L32.0286 0.527832" fill="white"/>
<path fill-rule="evenodd" clip-rule="evenodd" d="M18.98 0.527832L8.43555 42.8373H12.7851L23.3296 0.527832" fill="white"/>
<path fill-rule="evenodd" clip-rule="evenodd" d="M14.6304 0.527832H10.5444L0 42.8373H4.08597" fill="white"/>
<path fill-rule="evenodd" clip-rule="evenodd" d="M39.6735 8.69931H40.8597C41.7823 8.69931 42.8368 8.6993 43.7594 8.17208C44.6821 7.64486 45.4729 6.72223 45.4729 5.27237C45.4729 5.00876 45.2093 4.74514 45.2093 4.34973C44.6821 3.16348 43.7594 3.16348 42.046 3.16348H41.1233L39.6735 8.69931ZM37.301 17.5303H39.0144C40.2007 17.5303 41.3869 17.5303 42.1778 17.003C43.1004 16.4758 43.8912 15.2896 43.8912 13.8397C43.8912 13.5761 43.8912 12.9171 43.6276 12.3899C43.1004 11.2036 41.9141 11.2036 40.0689 11.2036H38.619L37.301 17.5303ZM31.7651 20.1664L36.7737 0.65918H44.4185C45.8683 0.92279 47.3182 0.92279 48.2408 1.58182C49.9543 2.50445 50.2179 4.21792 50.2179 4.74514C50.2179 5.66778 49.9543 6.45861 49.6907 7.11764C48.5044 9.09472 46.7909 9.75375 45.8683 9.75375C46.7909 10.0174 49.0316 10.6764 49.0316 13.8397C49.0316 15.8168 47.5818 18.1893 45.8683 19.1119C44.4184 20.2982 42.046 20.2982 40.3325 20.2982H31.7651V20.1664Z" fill="white"/>
<path fill-rule="evenodd" clip-rule="evenodd" d="M57.4672 9.35833H58.9171C59.8397 9.35833 61.2896 9.35833 62.0804 8.83111C62.7394 8.17208 63.2667 6.72222 63.2667 5.53598C63.2667 5.00876 63.2667 4.08612 62.344 3.5589C61.8168 3.29529 61.4214 3.29529 59.9715 3.29529H58.7853L57.4672 9.35833ZM65.9028 17.2667C65.9028 19.2437 66.1664 19.6391 66.43 20.1664H61.4214C60.8942 19.6391 60.8942 19.2437 60.8942 17.2667V16.0804C60.8942 14.8942 60.8942 14.3669 60.6305 13.7079C60.3669 12.258 59.1807 11.9944 57.7308 11.9944H56.8082L54.8311 20.1664H49.8225L54.8311 0.65918H62.7394C63.9257 0.92279 65.3755 0.92279 66.2982 1.58182C68.2753 2.50445 68.6707 4.21792 68.6707 5.14056C68.6707 7.11764 67.4844 8.96292 66.0346 9.75375C64.7165 10.1492 63.9257 10.5446 63.003 10.5446C63.2667 10.8082 63.9257 10.8082 64.4529 11.0718C65.9028 12.258 65.9028 13.9715 65.9028 15.4214V17.2667Z" fill="white"/>
<path fill-rule="evenodd" clip-rule="evenodd" d="M81.4558 10.8082V5.53598C81.4558 5.00876 81.4558 4.61334 81.4558 3.82251C81.1922 4.74514 80.9286 5.00876 80.5331 5.27237L77.6334 10.8082H81.4558ZM86.5962 19.9028H81.7194L81.4558 13.8397H76.1836L72.6248 19.9028H67.6162L78.6879 0.65918H85.6735L86.5962 19.9028Z" fill="white"/>
<path fill-rule="evenodd" clip-rule="evenodd" d="M97.7995 19.9032H91.341L91.0774 0.527832H96.086L95.8224 13.7084C95.8224 14.8946 95.8224 15.1582 95.5588 16.3445C96.086 15.1582 96.086 14.8946 96.745 13.972L103.204 0.527832H108.212" fill="white"/>
<path fill-rule="evenodd" clip-rule="evenodd" d="M110.585 19.9032H105.312L110.585 0.527832H115.593" fill="white"/>
<path fill-rule="evenodd" clip-rule="evenodd" d="M127.192 19.9032H114.407L119.284 0.527832H124.556L120.206 16.8717H127.851" fill="white"/>
<path fill-rule="evenodd" clip-rule="evenodd" d="M143.009 5.53582C143.009 3.16333 141.032 2.63611 140.109 2.63611C137.209 2.63611 136.287 5.27221 136.023 6.45846C135.1 8.83096 134.31 12.5215 134.31 14.3668C134.31 14.894 134.31 17.5301 137.209 17.5301C140.109 17.5301 141.295 14.6304 142.482 9.8854C142.35 9.09457 143.009 6.98568 143.009 5.53582ZM143.272 18.3209C141.559 19.5072 139.45 20.0344 137.209 20.0344C136.023 20.0344 134.837 20.0344 134.046 19.7708C129.433 18.3209 129.433 14.7622 129.433 13.7078C129.433 11.0716 130.619 6.98568 131.41 5.27221C132.596 2.63611 134.573 0 140.109 0C142.745 0 144.722 0.922637 145.645 1.71347C147.622 3.16333 148.017 4.8768 148.017 6.32666C148.017 7.77651 147.754 9.22637 147.095 10.6762C146.699 12.7851 145.909 16.3439 143.272 18.3209Z" fill="white"/>
<path fill-rule="evenodd" clip-rule="evenodd" d="M155.267 9.35833H156.717C157.639 9.35833 159.089 9.35833 159.88 8.83111C160.803 8.30389 161.33 6.85403 161.33 5.66778C161.33 5.14056 161.066 4.21792 160.144 3.6907C159.616 3.42709 159.221 3.42709 157.771 3.42709H156.848L155.267 9.35833ZM163.702 17.2667C163.702 19.2437 163.966 19.6391 164.23 20.1664H159.221C158.694 19.6391 158.694 19.2437 158.694 17.2667V16.0804C158.694 14.8942 158.694 14.3669 158.43 13.7079C158.166 12.258 156.98 11.9944 155.53 11.9944H154.608L152.631 20.1664H147.622L152.631 0.65918H160.539C161.725 0.92279 163.175 0.92279 164.098 1.58182C166.075 2.50445 166.47 4.21792 166.47 5.14056C166.47 7.11764 165.284 8.96292 163.834 9.75375C162.516 10.1492 161.593 10.5446 160.803 10.5446C161.33 10.8082 161.725 10.8082 162.252 11.0718C163.702 12.258 163.702 13.9715 163.702 15.4214V17.2667Z" fill="white"/>
<path fill-rule="evenodd" clip-rule="evenodd" d="M33.874 31.5015H35.0602C36.2465 31.2379 37.4327 31.2379 38.2235 30.9743C39.1462 30.4471 39.6734 29.2608 39.6734 28.0746C39.6734 27.5474 39.6734 27.1519 39.4098 26.8883C38.8826 25.9657 37.9599 25.9657 36.5101 25.9657H35.3238L33.874 31.5015ZM31.5015 39.9371H33.2149C34.4012 39.9371 35.5874 39.9371 36.3783 39.6735C37.5645 39.1462 38.3553 37.96 38.3553 36.1147C38.3553 36.1147 38.0917 35.1921 37.8281 34.6648C37.3009 33.7422 36.1146 33.7422 34.2694 33.7422H33.0831L31.5015 39.9371ZM26.2292 42.5732L31.2379 23.3296H38.4871C40.2006 23.3296 41.3869 23.3296 42.5731 23.8568C44.2866 25.0431 44.2866 26.7565 44.2866 27.0201C44.2866 27.9428 44.023 28.7336 43.7594 29.6562C42.8367 31.3697 41.1233 32.0287 40.2006 32.2924C40.7278 32.556 43.1003 33.215 43.1003 36.1147C43.1003 38.4872 41.9141 40.4643 40.2006 41.6505C38.4871 42.5732 36.1146 42.5732 34.4012 42.5732H26.2292Z" fill="white"/>
<path fill-rule="evenodd" clip-rule="evenodd" d="M59.1807 28.6017C59.1807 25.9656 57.2036 25.702 56.281 25.702C53.6449 25.702 52.4586 28.3381 52.195 29.2608C51.2724 31.6333 50.4816 35.3238 50.4816 37.4327C50.4816 37.9599 50.4816 40.596 53.3813 40.596C56.281 40.596 57.4672 37.6963 58.6535 32.9513C58.9171 32.0287 59.1807 30.0516 59.1807 28.6017ZM59.5761 41.3869C58.1263 42.5731 55.7538 43.1003 53.5131 43.1003C52.3268 43.1003 51.536 42.8367 50.3498 42.5731C45.7366 41.3869 45.7366 37.9599 45.7366 36.7737C45.7366 34.1376 46.9228 30.0516 47.7137 28.0745C48.8999 25.702 50.877 23.0659 56.4128 23.0659C59.0489 23.0659 61.026 23.5931 62.2122 24.5158C63.9257 25.9656 64.1893 27.6791 64.1893 29.5244C64.1893 30.9742 63.9257 32.4241 63.6621 33.874C63.0031 35.851 62.0804 39.4098 59.5761 41.3869Z" fill="white"/>
<path fill-rule="evenodd" clip-rule="evenodd" d="M80.5331 42.5727H74.9972L72.6247 32.4237C72.3611 31.2375 72.0975 30.7102 71.7021 29.2604C71.4385 30.4466 71.4385 30.7102 71.1749 31.8965L68.5388 42.7045H64.1892L69.1978 23.4609H74.9972L77.3697 33.6099C77.6333 35.0598 77.6333 35.3234 77.8969 37.1687C78.1606 35.7188 78.1606 35.4552 78.8196 33.6099L81.1921 23.4609H85.5417" fill="white"/>
<path fill-rule="evenodd" clip-rule="evenodd" d="M95.9544 33.6104L95.6908 28.3382C95.6908 27.4156 95.6908 27.4156 95.6908 26.6247C95.4272 27.5474 95.4272 27.5474 95.1635 28.0746L92.0002 33.6104H95.9544ZM100.963 42.5732H95.9544V36.5101H90.4185L86.9916 42.5732H82.3784L93.4501 23.3296H100.436L100.963 42.5732Z" fill="white"/>
<path fill-rule="evenodd" clip-rule="evenodd" d="M124.556 42.5732H119.943L123.106 30.3153C123.633 28.8654 123.633 28.3382 124.292 26.4929C123.765 27.6792 123.106 28.2064 122.579 30.0517L115.593 42.5732H111.771L111.507 30.3153C111.507 28.8654 111.507 28.3382 111.507 26.4929C110.98 28.2064 110.98 28.8654 110.321 30.0517L107.158 42.5732H102.808L107.817 23.3296H115.066L115.33 34.1376C115.33 35.3239 115.33 35.5875 115.33 36.7737C115.857 35.5875 115.857 35.3239 116.779 33.874L122.315 23.3296H129.565" fill="white"/>
<path fill-rule="evenodd" clip-rule="evenodd" d="M139.977 33.6104V28.3382C139.977 27.4156 139.977 27.4156 139.977 26.6247C139.714 27.5474 139.45 27.5474 139.055 28.0746L136.155 33.6104H139.977ZM144.986 42.5732H140.373L140.109 36.5101H134.837L131.278 42.5732H126.27L137.341 23.3296H144.327L144.986 42.5732Z" fill="white"/>
<path fill-rule="evenodd" clip-rule="evenodd" d="M155.267 42.5732H149.994L154.344 26.4929H149.335L149.994 23.3296H164.888L163.966 26.4929H159.353" fill="white"/>
</svg>
