<svg width="55" height="80" viewBox="0 0 55 80" fill="none" xmlns="http://www.w3.org/2000/svg">
<path d="M53.7371 7.72908H29.0359V1.19522C29.0359 0.557769 28.4781 0 27.8407 0C27.2032 0 26.6454 0.557769 26.6454 1.19522V7.72908H1.94424C1.30679 7.72908 0.749023 8.28685 0.749023 8.9243V14.9004V55.3785C0.749023 56.0159 1.30679 56.5737 1.94424 56.5737H15.6494L3.21914 77.9283C2.90042 78.4861 3.05978 79.2032 3.61755 79.6016C3.77691 79.6813 4.01596 79.761 4.255 79.761C4.65341 79.761 5.05181 79.5219 5.29086 79.2032L18.4383 56.5737H26.6454V74.1036C26.6454 74.741 27.2032 75.2988 27.8407 75.2988C28.4781 75.2988 29.0359 74.741 29.0359 74.1036V56.5737H37.243L50.3905 79.2032C50.6295 79.6016 51.0279 79.761 51.4263 79.761C51.6654 79.761 51.8247 79.6813 52.0638 79.6016C52.6215 79.2829 52.8606 78.5657 52.4622 77.9283L40.0319 56.494H53.7371C54.3745 56.494 54.9323 55.9363 54.9323 55.2988V14.9004V8.9243C54.9323 8.28685 54.4542 7.72908 53.7371 7.72908ZM52.5419 10.1195V13.7052H3.13946V10.1195H52.5419ZM52.5419 54.1036H3.13946V16.0956H52.5419V54.1036Z" fill="#6BB7CC"/>
</svg>
