<svg width="80" height="80" viewBox="0 0 80 80" fill="none" xmlns="http://www.w3.org/2000/svg">
<path d="M38.486 56.813C38.486 56.1756 37.9283 55.6178 37.2908 55.6178H10.2789C10.9163 43.825 20.7171 34.4226 32.5896 34.4226C36.8924 34.4226 41.1155 35.6178 44.7012 38.0082C45.2589 38.327 45.9761 38.1676 46.3745 37.6895C46.6932 37.1317 46.5338 36.4146 46.0558 36.0162C42.0717 33.4664 37.4502 32.1118 32.6693 32.1118C19.0438 32.1118 7.88843 43.1875 7.88843 56.8927C7.88843 57.5301 8.4462 58.0879 9.08365 58.0879H37.3705C37.9283 58.0082 38.486 57.5301 38.486 56.813Z" fill="#6BB7CC"/>
<path d="M32.1913 29.8806C40.0797 29.8806 46.5339 23.4264 46.5339 15.5379C46.5339 7.6495 40.0797 1.19531 32.1913 1.19531C24.3028 1.19531 17.8486 7.6495 17.8486 15.5379C17.9283 23.4264 24.3028 29.8806 32.1913 29.8806ZM32.1913 3.58575C38.8048 3.58575 44.1435 8.9244 44.1435 15.5379C44.1435 22.1515 38.8048 27.4901 32.1913 27.4901C25.6574 27.4901 20.2391 22.1515 20.2391 15.5379C20.3188 9.00408 25.6574 3.58575 32.1913 3.58575Z" fill="#6BB7CC"/>
<path d="M71.6334 70.9166L63.3466 58.8847C64.9402 56.813 65.8167 54.2632 65.8167 51.6337C65.8964 44.9405 60.4781 39.4425 53.7051 39.3628C47.0119 39.3628 41.5139 44.7811 41.4342 51.4743C41.4342 54.1835 42.3107 56.7333 43.8247 58.7253L35.3784 70.6775C35.0597 71.0759 35.0597 71.6337 35.3784 72.0321C35.6972 72.4305 36.1753 72.6696 36.6533 72.5102L43.3466 71.0759L44.5418 77.3708C44.6215 77.8488 45.0199 78.2473 45.498 78.3269C45.5777 78.3269 45.6573 78.3269 45.6573 78.3269C46.0557 78.3269 46.5338 78.0879 46.6932 77.6895L53.5458 65.0202L60.239 77.7692C60.4781 78.1676 60.8765 78.4066 61.2749 78.4066C61.3545 78.4066 61.3545 78.4066 61.4342 78.4066C61.9123 78.3269 62.3107 77.9285 62.4701 77.4504L63.745 71.1556L70.4382 72.6696C70.9163 72.7492 71.3944 72.5899 71.7131 72.1915C71.8725 71.8727 71.8725 71.315 71.6334 70.9166ZM53.6255 41.7532C53.6255 41.7532 53.7051 41.7532 53.6255 41.7532C59.1235 41.8329 63.4263 46.2154 63.4263 51.6337C63.4263 54.2632 62.3904 56.6536 60.4781 58.566C58.6454 60.3986 56.1753 61.3548 53.6255 61.3548H53.5458C48.1274 61.3548 43.8247 56.8927 43.8247 51.4743C43.9043 46.056 48.2868 41.7532 53.6255 41.7532ZM46.2151 73.6257L45.4183 69.4823C45.3386 69.1636 45.1792 68.9245 44.9402 68.6855C44.7012 68.5261 44.3028 68.4465 44.0637 68.5261L39.2031 69.562L45.5777 60.558C47.251 62.072 49.4024 63.1875 51.7131 63.5062L46.2151 73.6257ZM63.0279 68.6058C62.7091 68.5261 62.3904 68.6058 62.1514 68.7652C61.9123 68.9245 61.6733 69.2433 61.5936 69.562L60.7171 73.7054L55.3785 63.5062C57.6892 63.1875 59.8406 62.1516 61.5936 60.6377L67.8087 69.7214L63.0279 68.6058Z" fill="#6BB7CC"/>
</svg>
