<svg width="80" height="80" viewBox="0 0 80 80" fill="none" xmlns="http://www.w3.org/2000/svg">
<path d="M68.9245 38.8047C68.2871 38.8047 67.7293 39.3625 67.7293 39.9999V55.3784H56.4942C56.3349 55.3784 56.2552 55.3784 56.0958 55.4581C55.5381 55.5378 55.1396 56.0158 55.1396 56.6533V69.5617C55.1396 70.1991 55.6974 70.7569 56.3349 70.7569C56.9723 70.7569 57.5301 70.1991 57.5301 69.5617V57.7688H67.7293V69.5617C67.7293 70.1991 68.2871 70.7569 68.9245 70.7569C69.562 70.7569 70.1197 70.1194 70.1197 69.482V39.9999C70.1197 39.2828 69.562 38.8047 68.9245 38.8047Z" fill="#6BB7CC"/>
<path d="M53.0679 48.287H40.797V32.5897L40.9564 32.6694C44.4623 34.1037 48.3667 34.1037 51.8727 32.6694L53.6257 31.9523L55.3787 32.6694C58.8846 34.1037 62.789 34.1037 66.295 32.6694L68.5261 31.7132C68.7651 31.6336 68.9245 31.4742 69.0042 31.3148C69.2432 31.2352 69.5619 31.1555 69.7213 30.9164C70.1197 30.4383 70.1197 29.6415 69.5619 29.2431L40.3189 4.14353C39.8408 3.74512 39.2034 3.74512 38.7253 4.14353L9.64161 29.1634C9.32289 29.4822 9.16352 29.8806 9.24321 30.279C9.16352 30.8368 9.40257 31.3945 9.96034 31.6336L12.1914 32.5897C15.6974 34.024 19.6018 34.024 23.1077 32.5897L24.8607 31.8726L26.6137 32.5897C28.3667 33.3069 30.1994 33.7053 32.0321 33.7053C33.8647 33.7053 35.7771 33.3069 37.4504 32.5897L38.4066 32.1913V48.287H26.4544C25.8169 48.287 25.2591 48.8447 25.2591 49.4822C25.2591 50.1196 25.8169 50.6774 26.4544 50.6774H38.4066V69.4822C38.4066 70.1196 38.9643 70.6774 39.6018 70.6774C40.2392 70.6774 40.797 70.1196 40.797 69.4822V50.6774H53.0679C53.7054 50.6774 54.2631 50.1196 54.2631 49.4822C54.2631 48.8447 53.7054 48.287 53.0679 48.287ZM36.4942 30.4384C33.6257 31.6336 30.3587 31.6336 27.4902 30.4384L25.2591 29.4822C24.9404 29.3228 24.6217 29.3228 24.303 29.4822L22.0719 30.4384C19.2034 31.6336 15.9364 31.6336 13.0679 30.4384L12.2711 30.1196L39.6018 6.61365L66.6137 29.8806L65.2591 30.4384C62.3906 31.6336 59.1237 31.6336 56.2552 30.4384L54.0241 29.4822C53.7054 29.3228 53.3866 29.3228 53.0679 29.4822L50.8368 30.4384C47.9683 31.6336 44.7014 31.6336 41.8328 30.4384L40.3986 29.8009C40.1595 29.5619 39.9205 29.4822 39.5221 29.4822C39.2034 29.4025 38.9643 29.4025 38.6456 29.4822L36.4942 30.4384Z" fill="#6BB7CC"/>
<path d="M22.8686 55.4583H11.4742V39.8407C11.4742 39.2033 10.9164 38.6455 10.279 38.6455C9.64151 38.6455 9.08374 39.2033 9.08374 39.8407V69.4025C9.08374 70.0399 9.64151 70.5977 10.279 70.5977C10.9164 70.5977 11.4742 70.0399 11.4742 69.4025V57.8487H21.6734V69.4025C21.6734 70.0399 22.2312 70.5977 22.8686 70.5977C23.5061 70.5977 24.0638 70.0399 24.0638 69.4025V56.8128V56.7332V56.6535C24.0638 56.016 23.5061 55.4583 22.8686 55.4583Z" fill="#6BB7CC"/>
</svg>
