<svg width="80" height="80" viewBox="0 0 80 80" fill="none" xmlns="http://www.w3.org/2000/svg">
<path d="M41.1952 42.1514C26.2152 42.1514 14.0239 54.3426 14.0239 69.3227C14.0239 69.9601 14.5817 70.5179 15.2191 70.5179H67.1713C67.8088 70.5179 68.3666 69.9601 68.3666 69.3227C68.3666 54.3426 56.1753 42.1514 41.1952 42.1514ZM55.6972 68.2071H26.9323V49.0836C28.765 47.8087 30.8367 46.6932 33.0677 45.9761V56.2549C33.0677 56.8924 33.6255 57.4502 34.263 57.4502H48.2072C48.8446 57.4502 49.4024 56.8924 49.4024 56.2549V45.9761C51.7132 46.7729 53.7849 47.8884 55.7769 49.3227C55.7769 49.4024 55.7769 49.482 55.7769 49.5617L55.6972 68.2071ZM47.012 45.2589V55.0597H35.3785V45.2589C37.2112 44.7808 39.1235 44.5418 41.1156 44.5418C43.1873 44.5418 45.0996 44.7808 47.012 45.2589ZM24.5419 50.996V68.1275H16.4144C16.7331 61.3545 19.761 55.2988 24.5419 50.996ZM58.0877 68.2071V51.3147C62.6295 55.6175 65.5777 61.5936 65.8964 68.2071H58.0877Z" fill="#6BB7CC"/>
<path d="M40.7172 39.5219C49.3228 39.5219 56.4144 32.5099 56.4144 23.8247C56.4144 15.2191 49.4025 8.12744 40.7172 8.12744C32.1117 8.12744 25.02 15.1394 25.02 23.8247C25.02 32.4302 32.032 39.5219 40.7172 39.5219ZM40.7172 10.5179C46.2949 10.5179 51.0758 14.0239 53.0678 18.8844C50.9961 17.9282 47.4901 16.1752 45.3387 14.98C45.02 14.8207 44.6216 14.8207 44.2232 14.98C44.1435 14.98 38.8846 17.5298 35.3786 18.9641L35.0599 19.0438C32.5101 20.0796 30.8368 20.7968 27.7292 21.1952C28.9244 15.1394 34.263 10.5179 40.7172 10.5179ZM27.4105 23.5856C31.2352 23.1872 33.1475 22.3904 35.9364 21.1952L36.2551 21.0358C39.1236 19.8406 43.1873 17.9282 44.6216 17.2908C46.4543 18.247 51.7929 21.1155 53.785 21.6733C53.8646 22.3107 53.9443 23.0278 53.9443 23.745C53.9443 31.0756 47.9682 37.0517 40.6375 37.0517C33.3069 37.0517 27.3308 31.0756 27.3308 23.745C27.4105 23.745 27.4105 23.6653 27.4105 23.5856Z" fill="#6BB7CC"/>
</svg>
