<svg width="80" height="80" viewBox="0 0 80 80" fill="none" xmlns="http://www.w3.org/2000/svg">
<path d="M39.761 4.14355C20.1594 4.14355 4.22314 20.0798 4.22314 39.6814C4.22314 59.283 20.1594 75.2193 39.761 75.2193C59.3626 75.2193 75.2988 59.283 75.2988 39.6814C75.2988 20.0798 59.3626 4.14355 39.761 4.14355ZM39.761 72.9085C21.514 72.9085 6.61358 58.0081 6.61358 39.6814C6.61358 21.3547 21.514 6.53399 39.761 6.53399C58.008 6.53399 72.9084 21.4344 72.9084 39.6814C72.9084 57.9284 58.0877 72.9085 39.761 72.9085Z" fill="white"/>
<path d="M25.1796 62.4702H54.4226C55.0601 62.4702 55.6178 61.9124 55.6178 61.2749C55.6178 52.5897 48.5262 45.498 39.8409 45.498C31.076 45.498 23.9844 52.5897 23.9844 61.2749C23.9844 61.9921 24.4625 62.4702 25.1796 62.4702ZM39.7613 47.8885C46.7732 47.8885 52.5103 53.3068 53.1477 60.0797H26.3748C27.0123 53.2271 32.7493 47.8885 39.7613 47.8885Z" fill="white"/>
<path d="M31.1554 29.0836C31.1554 25.8963 28.526 23.2668 25.3387 23.2668C22.1515 23.2668 19.522 25.8963 19.522 29.0836C19.522 32.2708 22.1515 34.9003 25.3387 34.9003C28.526 34.9003 31.1554 32.2708 31.1554 29.0836ZM21.8327 29.0836C21.8327 27.1712 23.3467 25.6573 25.259 25.6573C27.1714 25.6573 28.6853 27.1712 28.6853 29.0836C28.6853 30.9959 27.1714 32.5099 25.259 32.5099C23.3467 32.5099 21.8327 30.9162 21.8327 29.0836Z" fill="white"/>
<path d="M53.6253 23.1873C50.4381 23.1873 47.8086 25.8167 47.8086 29.004C47.8086 32.1912 50.4381 34.8207 53.6253 34.8207C56.8126 34.8207 59.4421 32.1912 59.4421 29.004C59.4421 25.8167 56.8126 23.1873 53.6253 23.1873ZM53.6253 32.51C51.713 32.51 50.199 30.996 50.199 29.0837C50.199 27.1713 51.713 25.6574 53.6253 25.6574C55.5377 25.6574 57.0516 27.1713 57.0516 29.0837C57.0516 30.996 55.5377 32.51 53.6253 32.51Z" fill="white"/>
</svg>
