<svg width="80" height="80" viewBox="0 0 80 80" fill="none" xmlns="http://www.w3.org/2000/svg">
<path d="M70.5178 21.5937V11.3148C70.5178 10.5977 69.8803 9.96021 69.1632 9.96021H10.8365C10.1194 9.96021 9.48193 10.5977 9.48193 11.3148V21.5937C9.48193 22.3108 10.1194 22.9483 10.8365 22.9483H14.7409V57.8487H10.8365C10.1194 57.8487 9.48193 58.4861 9.48193 59.2032V69.4821C9.48193 70.1992 10.1194 70.8367 10.8365 70.8367L69.1632 70.757C69.8803 70.757 70.5178 70.1196 70.5178 69.4024V59.1236C70.5178 58.4064 69.8803 57.769 69.1632 57.769H65.2588V22.9483H69.1632C69.8803 22.9483 70.5178 22.3905 70.5178 21.5937ZM11.8724 12.3506H68.1274V20.5578H11.8724V12.3506ZM44.1433 35.7769H47.8883V38.6455H44.1433V35.7769ZM28.2867 33.3865V22.9483H51.713V33.3865H28.2867ZM32.0317 35.7769H35.7768V38.6455H32.0317V35.7769ZM68.1274 68.4463H11.8724V60.2391H68.1274V68.4463ZM62.8684 57.8487H17.1313V22.9483H25.8963V34.4224C25.8963 35.1395 26.5337 35.7769 27.2509 35.7769H29.6413V39.6813C29.6413 40.3985 30.2787 41.0359 30.9959 41.0359H36.8126C37.5297 41.0359 38.1672 40.3985 38.1672 39.6813V35.7769H41.7528V39.6813C41.7528 40.3985 42.3903 41.0359 43.1074 41.0359H48.9242C49.6413 41.0359 50.2787 40.3985 50.2787 39.6813V35.7769H52.6692C53.3863 35.7769 54.0238 35.1395 54.0238 34.4224V22.9483H62.7887V57.8487H62.8684Z" fill="white"/>
</svg>
