<svg width="80" height="80" viewBox="0 0 80 80" fill="none" xmlns="http://www.w3.org/2000/svg">
<path d="M64.8605 69.0835H60.239C59.8406 66.0556 58.5657 57.3704 55.5378 52.1911C52.5099 47.0118 47.5696 42.2309 45.4979 40.3186C47.5696 38.3266 52.5099 33.3863 55.5378 28.207C58.6453 22.9481 59.9202 14.1831 60.239 11.2349H64.7808C65.4183 11.2349 65.976 10.6772 65.976 10.0397C65.976 9.40225 65.4183 8.84448 64.7808 8.84448H14.0238C13.3864 8.84448 12.8286 9.40225 12.8286 10.0397C12.8286 10.6772 13.3864 11.2349 14.0238 11.2349H18.5657C18.9641 14.1831 20.239 22.9481 23.2669 28.207C26.2947 33.466 31.0756 38.4062 33.0677 40.3186C31.0756 42.2309 26.3744 47.0118 23.3465 52.1911C20.3187 57.3704 18.9641 66.0556 18.6453 69.0835H14.0238C13.3864 69.0835 12.8286 69.6413 12.8286 70.2787C12.8286 70.9162 13.3864 71.474 14.0238 71.474H19.6812H64.8605C65.4979 71.474 66.0557 70.9162 66.0557 70.2787C66.0557 69.6413 65.4979 69.0835 64.8605 69.0835ZM25.4183 53.466C29.0836 47.1712 35.6175 41.3544 35.6175 41.2748C35.8565 41.0357 36.0159 40.717 36.0159 40.3983C36.0159 40.0795 35.8565 39.7608 35.6175 39.5218C35.5378 39.4421 29.0836 33.3863 25.3386 27.0118C22.6294 22.3903 21.3545 14.2628 20.9561 11.2349H57.8485C57.4501 14.2628 56.1752 22.3903 53.4661 27.0118C49.8007 33.3066 42.9481 39.4421 42.8685 39.5218C42.6294 39.7608 42.47 40.0795 42.47 40.3983C42.47 40.717 42.6294 41.0357 42.8685 41.2748C42.9481 41.3544 49.721 47.1712 53.4661 53.466C56.1752 58.0875 57.4501 66.0556 57.8485 69.1632H21.0358C21.4342 65.976 22.7091 58.0078 25.4183 53.466Z" fill="white"/>
<path d="M40.6374 54.5816V36.2549L51.5538 23.984C51.8725 23.6653 51.9522 23.1075 51.7131 22.7091C51.5538 22.3107 51.0757 21.9919 50.5976 21.9919H28.2072C27.7291 21.9919 27.3307 22.231 27.0916 22.7091C26.9323 23.1075 27.0119 23.6653 27.251 23.984L38.247 36.2549V54.5816L27.251 63.1872C26.8526 63.5059 26.6932 64.0637 26.8526 64.5417C27.0119 65.0198 27.49 65.3386 27.9681 65.3386H50.9163C51.3944 65.3386 51.8725 65.0198 52.0319 64.5417C52.1912 64.0637 52.0319 63.5059 51.6335 63.1872L40.6374 54.5816ZM47.9681 24.3824L39.4422 34.0238L30.8366 24.3824H47.9681ZM31.4741 62.9481L39.4422 56.733L47.4103 62.9481H31.4741Z" fill="white"/>
</svg>
