<svg width="80" height="80" viewBox="0 0 80 80" fill="none" xmlns="http://www.w3.org/2000/svg">
<path fill-rule="evenodd" clip-rule="evenodd" d="M10.7956 59.1235C9.6416 59.1235 9.6416 59.1229 9.6416 59.1224L9.6416 59.1212L9.64161 59.1188L9.64164 59.114L9.64176 59.104L9.64228 59.0828C9.64277 59.0681 9.64357 59.0521 9.64479 59.035C9.64722 59.001 9.65149 58.9603 9.65911 58.9146C9.6734 58.8288 9.70421 58.6962 9.77774 58.5492C9.85362 58.3974 9.9862 58.2093 10.2075 58.0618C10.4362 57.9093 10.6874 57.8486 10.9165 57.8486H64.7014V58.9374C64.7014 57.8486 64.7019 57.8486 64.7025 57.8486L64.7037 57.8486L64.7061 57.8486L64.7109 57.8487L64.7208 57.8488L64.7421 57.8493C64.7567 57.8498 64.7727 57.8506 64.7899 57.8518C64.8239 57.8542 64.8646 57.8585 64.9103 57.8661C64.996 57.8804 65.1286 57.9112 65.2757 57.9848C65.4274 58.0606 65.6155 58.1932 65.7631 58.4144C65.9156 58.6432 65.9763 58.8945 65.9763 59.1235L65.9762 59.1326L65.8876 70.8367H10.9165V69.7478C10.9165 70.8367 10.9159 70.8367 10.9153 70.8367L10.9142 70.8367L10.9118 70.8367L10.907 70.8366L10.897 70.8365L10.8758 70.836C10.8611 70.8355 10.8451 70.8347 10.8279 70.8335C10.794 70.8311 10.7533 70.8268 10.7076 70.8192C10.6218 70.8049 10.4892 70.7741 10.3422 70.7005C10.1904 70.6247 10.0023 70.4921 9.85479 70.2708C9.7023 70.0421 9.6416 69.7908 9.6416 69.5618V59.1235H10.7956ZM63.5773 60.2391H12.032V68.4462H63.5152L63.5773 60.2391Z" fill="white"/>
<path fill-rule="evenodd" clip-rule="evenodd" d="M10.7956 11.2351C9.6416 11.2351 9.6416 11.2345 9.6416 11.2339L9.6416 11.2328L9.64161 11.2304L9.64164 11.2256L9.64176 11.2156L9.64228 11.1944C9.64277 11.1797 9.64357 11.1637 9.64479 11.1465C9.64722 11.1126 9.65149 11.0719 9.65911 11.0262C9.6734 10.9404 9.70421 10.8078 9.77774 10.6608C9.85361 10.509 9.9862 10.3209 10.2074 10.1734C10.4362 10.0209 10.6874 9.96021 10.9165 9.96021H64.7014V11.1554C64.7014 9.96021 64.702 9.96021 64.7025 9.96021L64.7037 9.96021L64.7061 9.96021L64.7109 9.96024L64.7209 9.96036L64.7421 9.96089C64.7568 9.96138 64.7728 9.96217 64.7899 9.9634C64.8239 9.96582 64.8646 9.97009 64.9103 9.97771C64.996 9.992 65.1286 10.0228 65.2757 10.0963C65.4274 10.1722 65.6156 10.3048 65.7631 10.526C65.9156 10.7548 65.9763 11.006 65.9763 11.2351V33.0678H63.5858V12.3506H12.032V33.0712L12.1117 33.0714L12.032 59.1235L12.032 59.1272L9.6416 59.1235V11.2351H10.7956Z" fill="white"/>
<path fill-rule="evenodd" clip-rule="evenodd" d="M28.3666 10.0398C29.0267 10.0398 29.5618 10.5749 29.5618 11.235V59.1235C29.5618 59.7836 29.0267 60.3187 28.3666 60.3187C27.7065 60.3187 27.1714 59.7836 27.1714 59.1235V11.235C27.1714 10.5749 27.7065 10.0398 28.3666 10.0398Z" fill="white"/>
<path fill-rule="evenodd" clip-rule="evenodd" d="M43.1874 10.0398C43.8475 10.0398 44.3826 10.5749 44.3826 11.235V59.1235C44.3826 59.7836 43.8475 60.3187 43.1874 60.3187C42.5273 60.3187 41.9922 59.7836 41.9922 59.1235V11.235C41.9922 10.5749 42.5273 10.0398 43.1874 10.0398Z" fill="white"/>
<path fill-rule="evenodd" clip-rule="evenodd" d="M69.562 34.263H43.1875V31.8726H70.6775V32.9613C70.6775 31.8726 70.6781 31.8726 70.6787 31.8726L70.6799 31.8726L70.6822 31.8726L70.687 31.8726L70.697 31.8727L70.7182 31.8732C70.7329 31.8737 70.7489 31.8745 70.7661 31.8757C70.8 31.8782 70.8407 31.8824 70.8864 31.8901C70.9722 31.9043 71.1048 31.9352 71.2518 32.0087C71.4036 32.0845 71.5917 32.2171 71.7392 32.4384C71.8917 32.6671 71.9524 32.9184 71.9524 33.1475V37.3706H70.7572C71.9524 37.3706 71.9524 37.3712 71.9524 37.3718L71.9524 37.3754L71.9524 37.3802L71.9523 37.3901L71.9517 37.4114C71.9513 37.426 71.9505 37.442 71.9492 37.4592C71.9468 37.4932 71.9425 37.5339 71.9349 37.5796C71.9206 37.6653 71.8898 37.7979 71.8163 37.945C71.7404 38.0967 71.6078 38.2848 71.3866 38.4323C71.1578 38.5848 70.9066 38.6455 70.6775 38.6455H56.1755V36.255H69.562V34.263Z" fill="white"/>
<path fill-rule="evenodd" clip-rule="evenodd" d="M57.3708 33.0679V42.6296C57.3708 42.8587 57.3101 43.1099 57.1576 43.3387C57.0101 43.5599 56.822 43.6925 56.6702 43.7684C56.5231 43.8419 56.3905 43.8727 56.3048 43.887C56.2591 43.8946 56.2184 43.8989 56.1844 43.9013C56.1672 43.9026 56.1512 43.9033 56.1366 43.9038L56.1153 43.9044L56.1054 43.9045L56.1006 43.9045L56.0982 43.9045L56.097 43.9045C56.0964 43.9045 56.0959 43.9045 56.0959 42.8155V43.9045H43.1875V41.5141H54.9803V33.0679H57.3708Z" fill="white"/>
</svg>
