<svg width="80" height="80" viewBox="0 0 80 80" fill="none" xmlns="http://www.w3.org/2000/svg">
<path d="M51.8722 31.9521C51.8722 31.8725 51.8722 31.7928 51.8722 31.7131C51.8722 27.0119 49.0834 22.9482 45.0196 21.0358V13.1474C45.0196 12.5099 44.4619 11.9521 43.8244 11.9521H36.3344C35.6969 11.9521 35.1392 12.5099 35.1392 13.1474V21.1155C31.3145 22.9482 28.685 26.8525 28.3663 31.6334C27.2507 49.8008 21.5934 55.5378 21.5137 55.6175L22.3105 56.494V57.6892H57.7687C58.2467 57.6892 58.7248 57.3705 58.8842 56.8924C59.0436 56.4143 58.9639 55.9362 58.5655 55.5378C58.6451 55.5378 52.191 49.5617 51.8722 31.9521ZM37.6093 14.4223H42.7089V20.3187C41.9121 20.1593 41.0356 20.0796 40.2388 20.0796C39.3623 20.0796 38.4858 20.1593 37.689 20.3984V14.4223H37.6093ZM24.7806 55.2988C26.8523 52.1115 30.0396 45.1792 30.8364 31.7928C31.1551 26.4541 35.1392 22.3904 40.1591 22.3904C45.2587 22.3904 49.3224 26.4541 49.4818 31.4741C49.4818 31.5537 49.4818 31.6334 49.4818 31.7131C49.6412 44.9402 53.1471 52.1115 55.3782 55.2988H24.7806Z" fill="white"/>
<path d="M47.0117 58.6453C46.3742 58.6453 45.8164 59.203 45.8164 59.8405C45.8164 62.8684 43.3463 65.2588 40.3981 65.2588C37.3702 65.2588 34.9798 62.7887 34.9798 59.8405C34.9798 59.203 34.422 58.6453 33.7846 58.6453C33.1471 58.6453 32.5894 59.203 32.5894 59.8405C32.5894 64.1433 36.0953 67.6493 40.3981 67.6493C44.7009 67.6493 48.2069 64.1433 48.2069 59.8405C48.2069 59.203 47.6491 58.6453 47.0117 58.6453Z" fill="white"/>
<path d="M16.4939 48.3665C13.8644 46.4541 12.3505 43.4262 12.3505 40.1593C12.3505 37.0517 13.7848 34.1832 16.1752 32.1912C16.6533 31.7928 16.8126 30.9959 16.3346 30.5179C15.9361 30.0398 15.1393 29.8804 14.6612 30.3585C11.6334 32.7489 9.88037 36.3346 9.88037 40.1593C9.88037 44.1434 11.7927 47.8884 14.98 50.2788C15.219 50.4382 15.4581 50.5179 15.6971 50.5179C16.0955 50.5179 16.4142 50.3585 16.6533 50.0398C17.1314 49.5617 16.972 48.7649 16.4939 48.3665Z" fill="white"/>
<path d="M4.6214 40.2389C4.6214 35.0596 6.85247 30.1194 10.7569 26.6931C11.2349 26.2947 11.3146 25.4979 10.8365 25.0198C10.4381 24.5417 9.64131 24.462 9.16323 24.9401C4.78076 28.7648 2.23096 34.3425 2.23096 40.2389C2.23096 46.2947 4.94012 52.0317 9.64132 55.8564C9.88036 56.0158 10.1194 56.0955 10.4381 56.0955C10.7569 56.0955 11.1553 55.9361 11.3943 55.6971C11.7927 55.219 11.713 54.4222 11.2349 54.0238C7.01183 50.5975 4.6214 45.5775 4.6214 40.2389Z" fill="white"/>
<path d="M65.0199 30.757C64.5418 30.3586 63.745 30.4383 63.3466 30.9164C62.9482 31.3945 63.0279 32.1913 63.506 32.5897C65.9761 34.5021 67.3307 37.4503 67.3307 40.5578C67.3307 43.8248 65.8168 46.773 63.1873 48.765C62.6295 49.1634 62.5498 49.8806 62.9482 50.4383C63.1873 50.757 63.506 50.9164 63.9044 50.9164C64.1434 50.9164 64.3825 50.8367 64.6215 50.6774C67.8088 48.2869 69.7211 44.5419 69.7211 40.5578C69.7211 36.7331 68.0478 33.1475 65.0199 30.757Z" fill="white"/>
<path d="M70.4382 25.259C69.9601 24.8606 69.1633 24.8606 68.7649 25.3387C68.3665 25.8168 68.3665 26.6136 68.8446 27.012C72.749 30.4383 74.9801 35.2988 74.9801 40.5578C74.9801 45.8965 72.5896 50.9164 68.4462 54.3427C67.9681 54.7411 67.8884 55.5379 68.2868 56.016C68.5259 56.3347 68.8446 56.4144 69.243 56.4144C69.4821 56.4144 69.8008 56.3347 70.0398 56.1753C74.741 52.271 77.4502 46.6136 77.4502 40.5578C77.4502 34.7411 74.9004 29.1634 70.4382 25.259Z" fill="white"/>
</svg>
