<svg width="80" height="80" viewBox="0 0 80 80" fill="none" xmlns="http://www.w3.org/2000/svg">
<path d="M53.3866 40.239C53.3866 39.6016 52.8288 39.0438 52.1914 39.0438H41.4344V22.7091C41.4344 22.0717 40.8766 21.5139 40.2392 21.5139C39.6017 21.5139 39.0439 22.0717 39.0439 22.7091V40.239C39.0439 40.8765 39.6017 41.4342 40.2392 41.4342H52.1914C52.8288 41.4342 53.3866 40.8765 53.3866 40.239Z" fill="white"/>
<path d="M12.1912 35.2987C12.3505 35.2987 12.5099 35.219 12.6692 35.1393L22.7091 30.2788C23.2669 29.9601 23.5059 29.2429 23.1075 28.6055C22.7888 28.1274 22.1513 27.8883 21.5936 28.1274L14.0238 31.8724C18.725 17.3704 34.1832 9.48197 48.6055 14.1035C57.1314 16.8126 63.8246 23.5855 66.4541 32.1114C66.7728 33.0676 67.0119 34.1035 67.1712 35.0597C67.2509 35.6174 67.8087 36.0158 68.3665 36.0158H68.6055C69.243 35.8565 69.6414 35.2987 69.5617 34.5816C69.3226 33.466 69.0836 32.4302 68.7649 31.3943C64.9402 18.8844 53.3864 10.2788 40.239 10.3585C27.4103 10.4381 16.0159 18.6453 11.8724 30.8365L8.36646 23.5856C8.12742 22.9481 7.41029 22.7091 6.85252 22.9481C6.29475 23.1871 5.97602 23.9043 6.21507 24.462C6.21507 24.5417 6.29475 24.5417 6.29475 24.6214L11.235 34.6612C11.3147 35.0597 11.7131 35.2987 12.1912 35.2987Z" fill="white"/>
<path d="M74.4222 56.5736L69.482 46.4541C69.1632 45.8963 68.4461 45.6573 67.8883 45.8963L57.8485 50.7569C57.2907 51.0756 56.972 51.7927 57.2907 52.3505C57.6095 52.9083 58.3266 53.227 58.8844 52.9083L66.1353 49.4023C61.0357 63.7449 45.3385 71.1553 30.9959 66.1353C21.8326 62.8684 15.0597 54.98 13.227 45.4182C13.0676 44.7808 12.4302 44.3027 11.7927 44.462C11.1553 44.6214 10.6772 45.2589 10.8366 45.8963C13.8644 62.0716 29.482 72.7489 45.7369 69.721C56.3346 67.729 65.0995 60.1592 68.5258 49.8804L72.2708 57.5298C72.4302 57.9282 72.9083 58.2469 73.3067 58.1672C73.466 58.1672 73.6254 58.0875 73.8644 58.0079C74.4222 57.8485 74.6612 57.1314 74.4222 56.5736Z" fill="white"/>
<path d="M39.0439 57.7689V63.3466C39.0439 63.9841 39.6017 64.5419 40.2392 64.5419C40.8766 64.5419 41.4344 63.9841 41.4344 63.3466V57.7689C41.4344 57.1315 40.8766 56.5737 40.2392 56.5737C39.6017 56.5737 39.0439 57.1315 39.0439 57.7689Z" fill="white"/>
<path d="M27.012 51.3945L23.028 55.3786C22.6296 55.8567 22.6296 56.6535 23.1873 57.0519C23.6654 57.4503 24.3029 57.4503 24.781 57.0519L28.765 53.0678C29.1634 52.5897 29.1634 51.7929 28.6057 51.3945C28.1276 50.9961 27.4901 50.9961 27.012 51.3945Z" fill="white"/>
</svg>
