<svg width="50" height="50" viewBox="0 0 50 50" fill="none" xmlns="http://www.w3.org/2000/svg">
<path fill-rule="evenodd" clip-rule="evenodd" d="M48.6299 25H48.6316C48.6316 5.81371 42.1173 1 24.6299 1C7.14931 1 0.633306 5.812 0.631592 24.9931V25.0086V25.0086C0.633306 44.1863 7.14759 48.9983 24.623 49H24.6384C42.119 49 48.6316 44.1863 48.6316 25H48.6299Z" stroke="#6BB7CC" stroke-linecap="round" stroke-linejoin="round"/>
<path fill-rule="evenodd" clip-rule="evenodd" d="M22.0317 20.2005H19.0317V24.2H22.0317V36.2H27.0323V24.2H30.6735L31.0317 20.2005H27.0323V18.5325C27.0323 17.5777 27.2226 17.2005 28.1466 17.2005H31.0317V12.2H27.2226C23.6277 12.2 22.0317 13.7822 22.0317 16.8148V20.2005Z" fill="#6BB7CC"/>
</svg>
