<svg width="50" height="50" viewBox="0 0 50 50" fill="none" xmlns="http://www.w3.org/2000/svg">
<path fill-rule="evenodd" clip-rule="evenodd" d="M48.6316 25V25C48.6316 5.8 42.1173 1 24.6316 1C7.14588 1 0.631592 5.8 0.631592 25C0.631592 44.2 7.14588 49 24.6316 49C42.1173 49 48.6316 44.2 48.6316 25Z" stroke="#6BB7CC" stroke-linecap="round" stroke-linejoin="round"/>
<path fill-rule="evenodd" clip-rule="evenodd" d="M24.6315 32.5448C20.5172 32.5448 17.0886 29.1162 17.0886 25.0019C17.0886 20.8876 20.5172 17.4591 24.6315 17.4591C28.7458 17.4591 32.1744 20.8876 32.1744 25.0019C32.1744 29.1162 28.7458 32.5448 24.6315 32.5448ZM24.6315 13.3446C18.1172 13.3446 12.9744 18.4875 12.9744 25.0017C12.9744 31.5143 18.1172 36.6572 24.6315 36.6572C31.1458 36.6572 36.2887 31.5143 36.2887 25.0017C36.2887 18.4875 31.1458 13.3446 24.6315 13.3446Z" fill="#6BB7CC"/>
<path fill-rule="evenodd" clip-rule="evenodd" d="M36.8022 10.0836C38.3176 10.0836 39.5468 11.311 39.5468 12.8265C39.5468 14.3419 38.3176 15.5693 36.8022 15.5693C35.2885 15.5693 34.0593 14.3419 34.0593 12.8265C34.0593 11.311 35.2885 10.0836 36.8022 10.0836Z" fill="#6BB7CC"/>
</svg>
