<svg width="80" height="80" viewBox="0 0 80 80" fill="none" xmlns="http://www.w3.org/2000/svg">
<path d="M6.53371 31.713C6.61339 31.713 6.77276 31.7927 6.85244 31.7927C7.41021 31.7927 7.88829 31.474 7.96798 30.9162C10.9162 20.5576 18.8843 12.1114 29.0835 8.68512L27.4102 13.1473C27.1712 13.7847 27.4899 14.4222 28.1273 14.6612C28.2867 14.7409 28.3664 14.7409 28.5257 14.7409C29.0038 14.7409 29.4819 14.4222 29.6413 13.9441L32.2708 6.93213C32.5098 6.29468 32.1911 5.65723 31.5536 5.41819L24.3823 2.70902C23.9042 2.3903 23.1871 2.70902 22.9481 3.34647C22.709 3.98392 23.0277 4.62137 23.6652 4.86042L27.968 6.45404C17.211 10.3584 8.84447 19.203 5.7369 30.1991C5.57754 30.8365 5.89626 31.5536 6.53371 31.713Z" fill="white"/>
<path d="M30.757 71.5535C20.3187 68.6053 11.9522 60.5575 8.52589 50.3583L13.2271 52.0316C13.8645 52.2707 14.502 51.952 14.741 51.3145C14.9801 50.6771 14.6613 50.0396 14.0239 49.8006L6.93226 47.2508C6.29481 47.0117 5.65736 47.3304 5.41832 47.9679L2.78884 55.1392C2.5498 55.7766 2.86852 56.4141 3.50597 56.6531C3.66533 56.7328 3.74501 56.7328 3.90438 56.7328C4.38246 56.7328 4.86055 56.4141 5.01991 55.936L6.45418 51.8723C10.3586 62.4699 19.2032 70.7567 30.1195 73.8643C30.1992 73.8643 30.3586 73.944 30.4382 73.944C30.996 73.944 31.4741 73.6253 31.5538 73.0675C31.7131 72.43 31.3944 71.7129 30.757 71.5535Z" fill="white"/>
<path d="M72.9081 48.0474C72.2707 47.8881 71.6332 48.2068 71.3942 48.8443C68.446 59.2028 60.4779 67.5694 50.2787 71.0753L52.3504 66.3741C52.5894 65.7367 52.3504 65.0992 51.7129 64.7805C51.0755 64.5415 50.438 64.7805 50.1193 65.418L47.0914 72.2706C46.8524 72.908 47.0914 73.5455 47.7289 73.8642L54.7408 76.9718C54.9002 77.0514 55.0595 77.0514 55.2189 77.0514C55.697 77.0514 56.0954 76.8124 56.3344 76.3343C56.5735 75.6969 56.3344 75.0594 55.697 74.7407L51.7926 72.9877C62.3105 69.163 70.5974 60.3184 73.705 49.402C73.944 48.8443 73.5456 48.2068 72.9081 48.0474Z" fill="white"/>
<path d="M76.2548 22.4699C75.6174 22.2308 74.9799 22.4699 74.6612 23.1073L72.7488 27.3304C68.8444 16.9719 60.0795 8.84438 49.4022 5.81649C48.7648 5.65713 48.1273 5.97585 47.8883 6.6133C47.7289 7.25075 48.0476 7.8882 48.6851 8.12725C58.7249 10.9958 66.9321 18.6452 70.5974 28.3663L66.1353 26.3743C65.4978 26.1352 64.8604 26.3743 64.5417 27.0117C64.3026 27.6492 64.5417 28.2866 65.1791 28.6053L72.0317 31.6332C72.1911 31.7129 72.3504 31.7129 72.5098 31.7129C72.9879 31.7129 73.3863 31.4739 73.6253 30.9958L76.7329 23.9838C77.1313 23.4261 76.8126 22.7886 76.2548 22.4699Z" fill="white"/>
<path d="M49.6416 49.2429C49.7213 49.1632 49.7213 49.1632 49.7213 49.1632C52.4305 45.7369 54.8209 36.3345 55.2193 33.9441C55.6177 31.474 56.9723 22.8684 56.9723 22.8684C57.052 22.3903 56.8129 21.9122 56.3349 21.6732C55.8568 21.4341 55.299 21.5138 54.9803 21.8325C54.9803 21.8325 53.8647 22.7887 49.801 24.3823C45.4982 26.0556 33.3867 31.713 32.8289 31.9521C28.7651 34.1831 26.2153 38.4062 26.2153 42.9481C26.2153 46.1353 27.4106 49.0038 29.3229 51.2349L25.8966 55.219C25.4982 55.6971 25.4982 56.4939 26.056 56.8923C26.295 57.0517 26.5341 57.211 26.8528 57.211C27.1715 57.211 27.4902 57.0517 27.7293 56.8126L31.0759 52.9082C33.2273 54.5815 35.8568 55.5377 38.805 55.5377C43.2671 55.6174 47.4106 53.1473 49.6416 49.2429ZM28.5261 42.9481C28.5261 39.2827 30.5978 35.8564 33.7851 34.0238C33.9444 33.9441 46.3747 28.1274 50.5978 26.5337C50.6775 26.5337 50.6775 26.5337 50.7572 26.454L30.9165 49.4819C29.4026 47.7289 28.5261 45.4182 28.5261 42.9481ZM38.805 53.227C36.4942 53.227 34.3428 52.4301 32.6695 51.1552L54.0241 26.5337C53.6257 29.1632 53.1476 32.2708 52.9086 33.705C52.5102 36.4142 50.1197 44.8604 47.9683 47.6493C47.8887 47.6493 47.8886 47.7289 47.8886 47.7289C47.809 47.8086 47.7293 47.8883 47.7293 47.968C45.8169 51.1552 42.4703 53.227 38.805 53.227Z" fill="white"/>
</svg>
