<svg width="80" height="80" viewBox="0 0 80 80" fill="none" xmlns="http://www.w3.org/2000/svg">
<path d="M39.1237 40.1592C29.4026 40.1592 21.5142 48.0476 21.5142 57.7687C21.5142 58.4062 22.0719 58.964 22.7094 58.964H55.4584C56.0958 58.964 56.6536 58.4062 56.6536 57.7687C56.7333 48.0476 48.8448 40.1592 39.1237 40.1592ZM23.9843 56.5735C24.6217 48.7648 31.1556 42.5496 39.1237 42.5496C47.0918 42.5496 53.6257 48.7648 54.2632 56.5735H23.9843Z" fill="white"/>
<path d="M38.8049 38.6454C44.4622 38.6454 49.1634 34.0238 49.1634 28.2868C49.1634 22.5497 44.5419 17.9282 38.8049 17.9282C33.1475 17.9282 28.4463 22.5497 28.4463 28.2868C28.526 33.9442 33.1475 38.6454 38.8049 38.6454ZM38.8049 20.3187C43.1873 20.3187 46.773 23.9043 46.773 28.2868C46.773 32.6693 43.1873 36.2549 38.8049 36.2549C34.4224 36.2549 30.8367 32.6693 30.8367 28.2868C30.9164 23.9043 34.5021 20.3187 38.8049 20.3187Z" fill="white"/>
<path d="M15.7771 46.7728C17.7691 46.7728 19.6815 47.3305 21.3548 48.2867C21.9125 48.6054 22.6297 48.4461 23.0281 47.8883C23.3468 47.3305 23.1874 46.6134 22.6297 46.215C20.558 45.0198 18.2472 44.3823 15.8568 44.3823C8.36672 44.3823 2.39062 50.3584 2.39062 57.7688C2.39062 58.4062 2.94839 58.964 3.58584 58.964H18.7253C19.3627 58.964 19.9205 58.4062 19.9205 57.7688C19.9205 57.1313 19.3627 56.5736 18.7253 56.5736H4.86074C5.41851 51.0756 10.1197 46.7728 15.7771 46.7728Z" fill="white"/>
<path d="M15.538 42.4699C19.9204 42.4699 23.5061 38.8843 23.5061 34.5018C23.5061 30.1193 19.9204 26.5337 15.538 26.5337C11.1555 26.5337 7.56982 30.1193 7.56982 34.5018C7.56982 38.8843 11.1555 42.4699 15.538 42.4699ZM15.538 28.9241C18.6455 28.9241 21.1156 31.3942 21.1156 34.5018C21.1156 37.6094 18.6455 40.0795 15.538 40.0795C12.4304 40.0795 9.96026 37.6094 9.96026 34.5018C9.96026 31.3942 12.4304 28.9241 15.538 28.9241Z" fill="white"/>
<path d="M62.6299 44.3823C60.2395 44.3823 57.9287 45.0198 55.857 46.215C55.2992 46.5337 55.0602 47.2508 55.4586 47.8883C55.7773 48.4461 56.4944 48.6851 57.1319 48.2867C58.8052 47.3305 60.7175 46.7728 62.7096 46.7728C68.3669 46.7728 73.0681 51.0756 73.6259 56.5736H59.602C58.9646 56.5736 58.4068 57.1313 58.4068 57.7688C58.4068 58.4062 58.9646 58.964 59.602 58.964H74.7414C75.3789 58.964 75.9367 58.4062 75.9367 57.7688C75.9367 50.3584 69.9606 44.3823 62.6299 44.3823Z" fill="white"/>
<path d="M62.7889 42.4699C67.1714 42.4699 70.7571 38.8843 70.7571 34.5018C70.7571 30.1193 67.1714 26.5337 62.7889 26.5337C58.4065 26.5337 54.8208 30.1193 54.8208 34.5018C54.8208 38.8843 58.4065 42.4699 62.7889 42.4699ZM62.7889 28.9241C65.8965 28.9241 68.3666 31.3942 68.3666 34.5018C68.3666 37.6094 65.8965 40.0795 62.7889 40.0795C59.6814 40.0795 57.2112 37.6094 57.2112 34.5018C57.2112 31.3942 59.761 28.9241 62.7889 28.9241Z" fill="white"/>
</svg>
