<svg width="80" height="80" viewBox="0 0 80 80" fill="none" xmlns="http://www.w3.org/2000/svg">
<path d="M69.0838 27.968L62.8687 9.40228C62.7093 8.92419 62.2312 8.60547 61.7532 8.60547H18.3269C17.8488 8.60547 17.3707 8.92419 17.2113 9.40228L10.9962 27.968C10.9165 28.1274 10.9165 28.2071 10.9165 28.3664V71.713C10.9165 72.3505 11.4743 72.9082 12.1117 72.9082H67.8886C68.5261 72.9082 69.0838 72.3505 69.0838 71.713V28.3664C69.0838 28.2867 69.0838 28.1274 69.0838 27.968ZM66.3747 27.4899C63.9842 29.3226 61.5938 30.1194 58.4862 30.1194C55.6177 30.1194 52.9085 29.2429 50.5181 27.5696V10.9959H60.8767L66.3747 27.4899ZM31.9524 10.9959H48.1277V27.5696C45.7372 29.2429 43.0281 30.1194 40.1595 30.1194C37.2113 30.1194 34.3428 29.1632 31.9524 27.4102V10.9959ZM19.2034 10.9959H29.5619V27.4102C27.0918 29.1632 24.303 30.1194 21.3547 30.1194C18.5659 30.1194 15.9364 29.3226 13.6257 27.8087L19.2034 10.9959ZM13.3866 70.5178V30.4381C15.7771 31.7927 18.4862 32.5098 21.3547 32.5098C24.7014 32.5098 27.9683 31.474 30.7571 29.482C33.546 31.474 36.8129 32.5098 40.1595 32.5098C43.4265 32.5098 46.534 31.5537 49.3229 29.721C52.1117 31.5537 55.2193 32.5098 58.4862 32.5098C61.6735 32.5098 64.2233 31.7927 66.6934 30.1991V70.5975H13.3866V70.5178Z" fill="white"/>
<path d="M40.0003 38.0078C33.7851 38.0078 28.6855 44.0636 28.6855 51.4739C28.6855 58.8843 33.7851 64.9401 40.0003 64.9401C46.2154 64.9401 51.315 58.8843 51.315 51.4739C51.315 43.9839 46.2154 38.0078 40.0003 38.0078ZM30.9963 51.4739C30.9963 45.9759 34.2632 41.3544 38.4863 40.5576C37.6895 42.709 36.4146 46.6931 36.6537 48.6054C36.813 49.8803 37.6895 51.1552 38.6457 52.5098C39.2832 53.466 40.08 54.5018 40.1597 55.1393C40.3987 56.3345 39.6816 59.9202 39.1238 62.5496C34.582 61.9919 30.9963 57.211 30.9963 51.4739ZM41.6736 62.3106C42.1517 60.0795 42.9485 56.2548 42.6298 54.6612C42.3907 53.5457 41.5939 52.3504 40.7174 51.0755C40.08 50.1194 39.2035 48.9241 39.1238 48.2867C38.9644 46.9321 40.2393 42.8684 41.1955 40.4779C45.578 41.1951 49.0043 45.8166 49.0043 51.4739C48.9246 56.8923 45.817 61.3544 41.6736 62.3106Z" fill="white"/>
</svg>
