<svg width="80" height="80" viewBox="0 0 80 80" fill="none" xmlns="http://www.w3.org/2000/svg">
<path d="M54.1036 51.0758C54.1833 50.6774 54.2629 50.2789 54.4223 49.8805C58.7251 49.6415 62.2311 46.0558 62.2311 41.6734V37.8487C62.2311 33.7052 59.2032 30.3586 55.2191 29.7212V25.8168C55.2191 25.1794 54.6613 24.6216 54.0239 24.6216H24.0637C23.4263 24.6216 22.8685 25.1794 22.8685 25.8168V42.2311C22.8685 45.3387 23.2669 48.3666 23.9841 51.0758C16.7331 53.2272 12.3506 56.8128 12.3506 60.8766C12.3506 67.4901 24.0637 72.6694 39.0438 72.6694C54.0239 72.6694 65.737 67.4901 65.737 60.8766C65.737 56.8128 61.4343 53.2272 54.1036 51.0758ZM59.8406 37.8487V41.6734C59.8406 44.6216 57.6892 47.012 54.9004 47.4104C55.1394 45.7371 55.2988 43.9841 55.2988 42.2311V32.1913C57.8486 32.7491 59.8406 35.0598 59.8406 37.8487ZM25.259 27.012H52.749V42.2311C52.749 45.4184 52.2709 48.526 51.4741 51.3945C51.4741 51.4742 51.3944 51.5539 51.3944 51.6335C51.3944 51.7132 51.3944 51.7132 51.3944 51.7929C50.4382 54.9801 49.004 57.769 47.1713 59.761H30.9163C29.0837 57.769 27.6494 54.9801 26.6932 51.7929V51.7132C26.6932 51.6335 26.6932 51.6335 26.6135 51.5538C25.8167 48.765 25.3386 45.5778 25.3386 42.3108L25.259 27.012ZM39.0438 70.1993C24.5418 70.1993 14.741 65.3387 14.741 60.7969C14.741 57.9284 18.486 55.1395 24.6215 53.3068C25.737 56.6535 27.4103 59.522 29.4821 61.5937C29.7211 61.8327 30.0398 61.9124 30.3586 61.9124H47.7291C48.0478 61.9124 48.3665 61.7531 48.6056 61.5937C50.6773 59.522 52.3506 56.6535 53.4661 53.3068C59.6016 55.1395 63.3466 57.9284 63.3466 60.7969C63.3466 65.3387 53.5458 70.1993 39.0438 70.1993Z" fill="white"/>
<path d="M28.9244 14.5019C29.9602 15.0597 30.518 15.6971 30.518 17.2111C30.518 19.0437 29.3228 19.6812 28.9244 19.8405C28.2869 20.0796 28.0479 20.7967 28.2869 21.4342C28.4463 21.9123 28.9244 22.1513 29.4025 22.1513C29.5618 22.1513 29.7212 22.1513 29.8805 22.0716C31.3148 21.4342 32.9084 19.8405 32.9084 17.2111C32.9084 14.2628 31.2351 13.0676 29.9602 12.4302C29.9602 12.4302 29.8805 12.4302 29.8805 12.3505C29.4821 12.1911 28.2869 11.5537 28.2869 9.72102C28.2869 7.88835 29.4821 7.2509 29.8805 7.09153C30.518 6.85249 30.757 6.13536 30.518 5.49791C30.279 4.86046 29.5618 4.62141 28.9244 4.86046C27.4901 5.49791 25.8965 7.09153 25.8965 9.72102C25.9762 12.2708 27.4901 13.8644 28.9244 14.5019Z" fill="white"/>
<path d="M38.0078 14.5019C39.0436 15.0597 39.6014 15.6971 39.6014 17.2111C39.6014 19.0437 38.4062 19.6812 38.0078 19.8405C37.3703 20.0796 37.1313 20.7967 37.3703 21.4342C37.5297 21.9123 38.0078 22.1513 38.4859 22.1513C38.6452 22.1513 38.8046 22.1513 38.964 22.0716C40.3982 21.4342 41.9918 19.8405 41.9918 17.2111C41.9918 14.2628 40.3185 13.0676 39.0436 12.4302C39.0436 12.4302 38.964 12.4302 38.964 12.3505C38.5655 12.1911 37.3703 11.5537 37.3703 9.72102C37.3703 7.88835 38.5655 7.2509 38.964 7.09153C39.6014 6.85249 39.8404 6.13536 39.6014 5.49791C39.3624 4.86046 38.6452 4.62141 38.0078 4.86046C36.5735 5.41823 35.0596 7.01185 35.0596 9.64134C35.0596 12.2708 36.5735 13.8644 38.0078 14.5019Z" fill="white"/>
<path d="M47.0919 14.5019C48.1277 15.0597 48.6855 15.6971 48.6855 17.2111C48.6855 19.0437 47.4903 19.6812 47.0919 19.8405C46.4544 20.0796 46.2154 20.7967 46.4544 21.4342C46.6138 21.9123 47.0919 22.1513 47.5699 22.1513C47.7293 22.1513 47.8887 22.1513 48.048 22.0716C49.4823 21.4342 51.0759 19.8405 51.0759 17.2111C51.0759 14.2628 49.4026 13.0676 48.1277 12.4302C48.1277 12.4302 48.048 12.4302 48.048 12.3505C47.6496 12.1911 46.4544 11.5537 46.4544 9.72102C46.4544 7.88835 47.6496 7.2509 48.048 7.09153C48.6855 6.85249 48.9245 6.13536 48.6855 5.49791C48.4464 4.86046 47.7293 4.62141 47.0919 4.86046C45.6576 5.49791 44.064 7.09153 44.064 9.72102C44.064 12.1911 45.5779 13.8644 47.0919 14.5019Z" fill="white"/>
</svg>
