<svg width="83" height="80" viewBox="0 0 83 80" fill="none" xmlns="http://www.w3.org/2000/svg">
<path d="M81.8566 19.761C81.4582 18.6455 80.6614 17.769 79.7052 17.2909C78.6693 16.7331 77.4741 16.6534 76.4383 17.0518L63.2909 21.8327C62.8128 21.9921 62.5737 22.3905 62.494 22.8686L46.3984 28.765C45.2032 25.7371 44.1674 23.3467 43.6893 22.2311L50.7012 13.8646C51.0199 13.5459 51.0996 12.9881 50.8606 12.5897C50.7012 12.1913 50.2231 11.8726 49.745 11.8726H13.9682C13.4901 11.8726 13.0917 12.1116 12.8526 12.5897C12.6933 12.9881 12.6933 13.5459 13.012 13.8646L20.0239 22.2311C18.4303 26.1355 10.6215 44.9403 9.34664 52.1913C8.47015 57.2112 9.66537 62.0718 12.6136 65.5777C15.4821 69.004 19.7052 70.9164 24.5658 70.9164H38.6693C43.6096 70.9164 48.1514 68.8447 51.0996 65.3387C54.1275 61.753 55.3227 57.1315 54.4462 52.1913C53.8088 48.5259 51.498 41.9921 49.1873 35.8566L65.0438 29.8805C65.2829 30.1196 65.6016 30.2789 65.8407 30.2789C66 30.2789 66.0797 30.2789 66.2391 30.1993L79.3865 25.4184C81.6176 24.5419 82.6534 22.0718 81.8566 19.761ZM16.518 14.263H47.2749L41.7769 20.7969H22.016L16.518 14.263ZM49.267 63.8247C46.7172 66.8526 42.8925 68.5259 38.6693 68.5259H24.5658C20.4223 68.5259 16.8367 66.9323 14.4462 64.0638C12.6933 61.9921 11.7371 59.4423 11.498 56.7331H52.2152C51.9761 59.3626 50.9403 61.753 49.267 63.8247ZM52.2948 54.3427H11.498C11.5777 53.7849 11.5777 53.2271 11.7371 52.6694C12.9323 45.7371 20.6614 27.1714 22.3347 23.267H41.6176C42.3347 25.02 44.4064 29.9602 46.4781 35.3785C46.4781 35.4582 46.4781 35.5379 46.5578 35.6176C46.5578 35.6973 46.6375 35.7769 46.7172 35.8566C49.1076 42.1514 51.5777 49.004 52.2152 52.6694C52.2152 53.2271 52.2152 53.7849 52.2948 54.3427ZM47.2749 30.9961L63.2112 25.1793L64.0877 27.6495L48.3108 33.6255C47.9921 32.7491 47.5936 31.8726 47.2749 30.9961ZM78.5897 23.1076L66.5578 27.4901L65.2032 23.6654L77.2351 19.2829C77.6335 19.1236 78.1913 19.1236 78.5897 19.3626C79.0677 19.6016 79.3865 20 79.6255 20.5578C79.9442 21.5937 79.5458 22.7889 78.5897 23.1076Z" fill="white"/>
</svg>
