<svg width="80" height="80" viewBox="0 0 80 80" fill="none" xmlns="http://www.w3.org/2000/svg">
<path d="M25.9762 67.2512V12.7492C25.9762 9.80099 23.5857 7.49023 20.7172 7.49023C17.8487 7.49023 15.4583 9.88067 15.4583 12.7492V67.1715C15.4583 70.1197 17.8487 72.4305 20.7172 72.4305C23.5857 72.5102 25.9762 70.1197 25.9762 67.2512ZM17.769 67.2512V12.7492C17.769 11.1556 19.0439 9.88067 20.6375 9.88067C22.2312 9.88067 23.5061 11.1556 23.5061 12.7492V67.1715C23.5061 68.7651 22.2312 70.04 20.6375 70.04C19.0439 70.1197 17.769 68.8448 17.769 67.2512Z" fill="white"/>
<path d="M64.6217 67.2512V12.7492C64.6217 9.80099 62.2312 7.49023 59.3627 7.49023C56.4942 7.49023 54.1038 9.88067 54.1038 12.7492V67.1715C54.1038 70.1197 56.4942 72.4305 59.3627 72.4305C62.2312 72.5102 64.6217 70.1197 64.6217 67.2512ZM56.4145 67.2512V12.7492C56.4145 11.1556 57.6894 9.88067 59.283 9.88067C60.8767 9.88067 62.1516 11.1556 62.1516 12.7492V67.1715C62.1516 68.7651 60.8767 70.04 59.283 70.04C57.6894 70.1197 56.4145 68.8448 56.4145 67.2512Z" fill="white"/>
<path d="M45.1794 67.4902L48.9244 13.1476C49.1634 10.2791 46.9324 7.72925 43.9842 7.49021C41.0359 7.25117 38.5658 9.48224 38.3268 12.4304L34.5818 66.7731C34.3427 69.6416 36.5738 72.1914 39.522 72.4305C42.4702 72.5898 44.9403 70.4384 45.1794 67.4902ZM36.9722 66.9324L40.7172 12.5898C40.7969 10.9962 42.2312 9.80097 43.8248 9.88065C45.4184 9.96033 46.6136 11.3946 46.534 12.9882L42.7889 67.3309C42.7093 68.9245 41.275 70.1197 39.6814 70.04C38.0877 69.9603 36.8925 68.5261 36.9722 66.9324Z" fill="white"/>
</svg>
