<svg width="80" height="80" viewBox="0 0 80 80" fill="none" xmlns="http://www.w3.org/2000/svg">
<path d="M62.6296 18.327H60.0001V12.4306C60.0001 11.7931 59.4423 11.2354 58.8049 11.2354H20.2392C19.6017 11.2354 19.0439 11.7931 19.0439 12.4306V18.327H16.4145C15.777 18.327 15.2192 18.8848 15.2192 19.5222V25.578C15.2192 26.2154 15.777 26.7732 16.4145 26.7732H19.1236L24.0639 69.8011C24.1435 70.4385 24.6216 70.8369 25.2591 70.8369H53.7053C54.3427 70.8369 54.8208 70.3589 54.9005 69.8011L59.8407 26.7732H62.6296C63.267 26.7732 63.8248 26.2154 63.8248 25.578V19.5222C63.8248 18.8848 63.3467 18.327 62.6296 18.327ZM21.4344 13.6258H57.6894V18.327H21.4344V13.6258ZM53.8647 57.8489H25.0997L22.8686 38.327H56.0957L53.8647 57.8489ZM26.3746 68.5262L25.4184 60.319H53.6256L52.6694 68.5262H26.3746ZM56.4145 36.0162H22.6296L21.5141 26.7732H57.4503L56.4145 36.0162ZM61.4344 24.3828H58.8049H20.2392H17.53V20.7174H20.1595H58.8049H61.4344V24.3828Z" fill="white"/>
</svg>
