<svg width="80" height="80" viewBox="0 0 80 80" fill="none" xmlns="http://www.w3.org/2000/svg">
<path fill-rule="evenodd" clip-rule="evenodd" d="M7.96802 8.60547H71.2565L69.0653 12.9879L70.6589 16.1752L69.0653 19.3624L71.2565 23.7449H8.42455L10.6158 19.3624L8.95907 16.049L11.2549 12.9879L7.96802 8.60547ZM12.7489 10.9959L14.2429 12.9879L11.7578 16.3014L13.2884 19.3624L12.2924 21.3545H67.3887L66.3927 19.3624L67.9863 16.1752L66.3927 12.9879L67.3887 10.9959H12.7489Z" fill="white"/>
<path fill-rule="evenodd" clip-rule="evenodd" d="M17.9282 22.5498V9.80078H20.3187V22.5498H17.9282Z" fill="white"/>
<path fill-rule="evenodd" clip-rule="evenodd" d="M60.1592 22.5498V9.80078H62.5496V22.5498H60.1592Z" fill="white"/>
<path fill-rule="evenodd" clip-rule="evenodd" d="M7.96802 55.2188H71.2565L69.0687 59.5944L70.6623 62.702L69.062 65.9026L71.2355 70.3582H8.42455L10.6158 65.9757L8.95907 62.6623L11.2549 59.6012L7.96802 55.2188ZM12.7489 57.6092L14.2429 59.6012L11.7578 62.9147L13.2884 65.9757L12.2924 67.9678H67.4097L66.3959 65.8895L67.9829 62.7156L66.3893 59.6081L67.3887 57.6092H12.7489Z" fill="white"/>
<path fill-rule="evenodd" clip-rule="evenodd" d="M17.9282 69.1631V56.4141H20.3187V69.1631H17.9282Z" fill="white"/>
<path fill-rule="evenodd" clip-rule="evenodd" d="M60.1592 69.1631V56.4141H62.5496V69.1631H60.1592Z" fill="white"/>
<path fill-rule="evenodd" clip-rule="evenodd" d="M70.5434 29.2373L68.672 33.7506L70.5809 36.7731L69.2263 40.1197L71.8594 44.2886L9.13783 49.7279L11.0092 45.2146L9.02573 42.0741L11.0923 38.783L7.35596 34.717L70.5434 29.2373ZM12.4049 36.6785L14.0869 38.509L11.8507 42.0704L13.6919 44.9857L12.8541 47.0062L67.7422 42.2463L66.5505 40.3595L67.9051 37.0128L65.9893 33.9795L66.8271 31.959L12.4049 36.6785Z" fill="white"/>
<path fill-rule="evenodd" clip-rule="evenodd" d="M18.5701 47.7542L17.4546 35.0052L19.8359 34.7969L20.9515 47.5459L18.5701 47.7542Z" fill="white"/>
<path fill-rule="evenodd" clip-rule="evenodd" d="M60.6419 44.0892L59.5264 31.3402L61.9077 31.1318L63.0232 43.8808L60.6419 44.0892Z" fill="white"/>
</svg>
