<svg width="80" height="80" viewBox="0 0 80 80" fill="none" xmlns="http://www.w3.org/2000/svg">
<path d="M55.4577 46.932C55.3781 46.932 55.3781 46.932 55.4577 46.932C55.0593 46.932 54.6609 46.693 54.4219 46.3743L43.0275 27.2508C43.0275 27.1711 42.9478 27.1711 42.9478 27.0914C41.5135 24.7806 40.7964 22.0715 40.7964 19.3623C40.7964 11.1551 47.4896 4.46191 55.6968 4.46191C59.6809 4.46191 63.4259 6.05554 66.2147 8.84438C69.0036 11.6332 70.5972 15.3782 70.5972 19.3623C70.5972 22.0715 69.8801 24.701 68.4458 27.0117C68.4458 27.0914 68.3661 27.1711 68.3661 27.2508L56.4139 46.3743C56.1749 46.693 55.8561 46.932 55.4577 46.932ZM45.1789 26.2149L55.4577 43.4261L66.2147 26.2946C66.2147 26.2149 66.2944 26.1352 66.2944 26.0555C67.5693 24.0635 68.2067 21.7528 68.2067 19.442C68.2067 16.0954 66.9318 12.9878 64.5414 10.5974C62.151 8.20693 59.0434 6.93203 55.6968 6.93203C48.7645 6.93203 43.1868 12.5097 43.1868 19.442C43.1868 21.8324 43.8243 24.0635 45.0992 26.0555C45.0992 26.0555 45.1789 26.1352 45.1789 26.2149Z" fill="#6BB7CC"/>
<path d="M55.6972 25.0193C54.0239 25.0193 52.4302 24.3819 51.235 23.1867C50.0398 21.9914 49.4023 20.3978 49.4023 18.7245C49.4023 17.0512 50.0398 15.4576 51.235 14.2624C52.4302 13.0671 54.0239 12.4297 55.6972 12.4297C59.2031 12.4297 61.992 15.2982 61.992 18.7245C61.992 20.3978 61.3545 21.9914 60.1593 23.1867C58.9641 24.3022 57.3705 25.0193 55.6972 25.0193ZM55.6972 14.7404C54.6613 14.7404 53.7051 15.1389 52.9083 15.856C52.1912 16.5731 51.7928 17.609 51.7928 18.6448C51.7928 19.6807 52.1912 20.7165 52.9083 21.4337C53.6255 22.1508 54.6613 22.5492 55.6972 22.5492C56.733 22.5492 57.6892 22.1508 58.486 21.4337C59.2031 20.7165 59.6016 19.6807 59.6016 18.6448C59.6016 16.4934 57.8486 14.7404 55.6972 14.7404Z" fill="#6BB7CC"/>
<path d="M75.219 63.9039H3.58549C3.18708 63.9039 2.78868 63.6648 2.54963 63.3461C2.31059 63.0274 2.31059 62.5493 2.46995 62.2306L15.458 31.7923C15.6174 31.3142 16.0955 31.0752 16.5735 31.0752H47.3305C47.968 31.0752 48.5257 31.633 48.5257 32.2704C48.5257 32.9079 47.968 33.4656 47.3305 33.4656H17.45L5.41816 61.5134H73.3863L61.7528 34.2624C61.5138 33.625 61.7528 32.9875 62.3903 32.6688C63.0277 32.4298 63.6652 32.6688 63.9839 33.3063L76.3345 62.1509C76.4939 62.5493 76.4939 62.9477 76.2548 63.2664C76.0158 63.6648 75.6174 63.9039 75.219 63.9039Z" fill="#6BB7CC"/>
<path d="M55.5377 63.6647C54.9002 63.6647 54.4221 63.1866 54.3424 62.6289C54.3424 62.5492 53.5456 56.6528 45.3385 55.2982C44.5417 55.1388 43.3464 55.0591 41.9122 54.8998C34.1034 54.1826 27.0118 53.1468 25.6572 49.5611C24.7807 47.1707 26.0556 45.4177 27.0915 43.9834C28.207 42.3898 28.6054 41.7524 28.0476 40.7165C27.6492 40.0791 26.5337 39.601 25.4181 39.1229C23.1871 38.1667 20.1592 36.8121 20.1592 33.2265C20.1592 32.589 20.7169 32.0312 21.3544 32.0312C21.9918 32.0312 22.5496 32.589 22.5496 33.2265C22.5496 35.1388 23.9839 35.9356 26.3743 36.9715C27.8883 37.6089 29.4022 38.2464 30.1193 39.601C31.5536 41.9914 30.1193 43.9834 29.0835 45.4974C28.1273 46.852 27.4899 47.7285 27.9679 48.844C28.9241 51.3938 37.9281 52.2703 42.2309 52.6687C43.6652 52.8281 44.9401 52.9077 45.8166 53.0671C55.7767 54.581 56.7329 61.9914 56.7329 62.3101C56.8126 62.9476 56.3345 63.585 55.697 63.6647C55.6174 63.6647 55.6173 63.6647 55.5377 63.6647Z" fill="#6BB7CC"/>
</svg>
