<svg width="80" height="80" viewBox="0 0 80 80" fill="none" xmlns="http://www.w3.org/2000/svg">
<path d="M64.9403 10.3584H37.0519C36.4144 10.3584 35.8567 10.9162 35.8567 11.5536V16.7329H25.8965C25.259 16.7329 24.7013 17.2907 24.7013 17.9281V23.9042H14.7411C14.1037 23.9042 13.5459 24.462 13.5459 25.0994V68.1273C13.5459 68.7648 14.1037 69.3225 14.7411 69.3225H42.6296C43.267 69.3225 43.8248 68.7648 43.8248 68.1273V62.1512H53.7849C54.4224 62.1512 54.9802 61.5935 54.9802 60.956V55.7767H64.9403C65.5778 55.7767 66.1355 55.219 66.1355 54.5815V11.5536C66.1355 10.9162 65.5778 10.3584 64.9403 10.3584ZM41.4343 66.9321H15.9363V26.2947H41.4343V66.9321ZM52.5897 59.7608H43.8248V25.0994C43.8248 24.462 43.267 23.9042 42.6296 23.9042H27.0917V19.1233H52.5897V59.7608ZM63.7451 53.3863H54.9802V17.9281C54.9802 17.2907 54.4224 16.7329 53.7849 16.7329H38.2471V12.7488H63.7451V53.3863Z" fill="#6BB7CC"/>
</svg>
