<svg width="80" height="80" viewBox="0 0 80 80" fill="none" xmlns="http://www.w3.org/2000/svg">
<path d="M68.4462 57.9287H61.3545H58.9641H52.8286H50.4382H43.9043H41.5139H28.9242H26.5338H19.9999H17.6095H11.474H9.08361H2.94815C2.3107 57.9287 1.75293 58.4865 1.75293 59.1239C1.75293 59.4427 1.91229 59.7614 2.07165 60.0004L10.7569 68.6857C13.6254 71.5542 17.4501 73.1478 21.5139 73.1478H58.5657C62.5497 73.1478 66.4541 71.5542 69.3227 68.6857L78.0079 60.0004C78.3266 59.6817 78.486 59.1239 78.247 58.7255C78.0876 58.2474 77.6095 58.0084 77.1314 58.0084H70.9163H68.4462V57.9287ZM67.49 66.9327C65.0995 69.3231 61.8326 70.6777 58.486 70.6777H21.4342C18.0079 70.6777 14.8207 69.3231 12.4302 66.9327L5.81668 60.3191H74.1832L67.49 66.9327Z" fill="#6BB7CC"/>
<path d="M61.4346 45.1C57.2911 43.347 53.1477 43.6658 50.6776 45.5781C50.3589 44.861 49.9604 44.1439 49.4027 43.5861C47.9684 42.1518 45.7373 41.5941 43.2672 42.0722C42.1517 42.3112 41.0361 42.7096 39.9206 43.3471C39.9206 41.9925 39.5222 40.4785 38.566 39.1239C37.2911 37.1319 35.1397 35.4586 32.6696 34.4227C27.2513 32.112 21.6736 33.3869 20.08 37.2116C19.2832 39.1239 19.6019 41.355 20.9565 43.5064C21.3549 44.1439 21.9126 44.7813 22.4704 45.3391C22.2314 45.3391 21.9923 45.3391 21.7533 45.3391C15.8569 45.3391 11.2354 48.606 11.2354 52.8291C11.2354 57.0522 15.8569 60.3192 21.7533 60.3192C27.6497 60.3192 32.2712 57.0522 32.2712 52.8291C32.2712 51.5542 31.8728 50.359 31.076 49.3231C31.4744 49.3231 31.8728 49.4028 32.1915 49.4028C32.829 49.4028 33.4664 49.3231 34.1039 49.2435C32.1915 52.6698 32.2712 56.4148 34.4226 58.6459C35.6178 59.8411 37.1318 60.3988 38.8848 60.3988C41.5939 60.3988 44.6218 59.0443 47.1716 56.4945C48.0481 55.618 48.7652 54.7415 49.323 53.7853C50.5182 55.9367 52.6696 57.849 55.6178 59.1239C57.4505 59.9208 59.2832 60.2395 61.0361 60.2395C64.3828 60.2395 67.1716 58.8052 68.2075 56.2554C69.8011 52.1917 66.8529 47.4108 61.4346 45.1ZM60.4784 47.3311C64.3031 48.9247 66.6935 52.112 66.1357 54.5821C64.7015 54.9008 61.1158 55.2196 59.6019 51.4745C58.2473 48.2076 55.6178 47.0124 53.2274 46.7733C54.0242 46.4546 54.9804 46.2953 56.0162 46.2953C57.4505 46.3749 58.9644 46.6937 60.4784 47.3311ZM43.6656 44.3829C44.064 44.3032 44.5421 44.2235 44.9405 44.2235C45.817 44.2235 46.6138 44.4626 47.2513 44.861C47.0122 46.2953 45.8967 49.7216 41.9126 49.7216C38.327 49.7216 36.2553 51.7136 35.1397 53.865C35.1397 51.7933 36.2553 49.3231 38.327 47.3311C39.9206 45.8172 41.833 44.7813 43.6656 44.3829ZM31.7134 36.5741C33.7852 37.4506 35.5381 38.8052 36.574 40.3988C37.3708 41.5941 37.6895 42.869 37.4505 43.9048C36.0162 44.2235 32.4306 44.4626 30.9166 40.8769C29.562 37.61 26.9326 36.4148 24.5421 36.1757C25.3389 35.857 26.2951 35.6976 27.331 35.6976C28.6059 35.618 30.1995 35.9367 31.7134 36.5741ZM21.7533 47.6498C25.8967 47.6498 29.4027 49.6419 29.8011 52.1917C28.6059 52.9885 25.4186 54.7415 22.5501 51.8729C20.0003 49.3231 17.1318 49.3231 14.9007 50.0403C16.4146 48.606 18.9644 47.6498 21.7533 47.6498ZM21.7533 57.7694C17.6099 57.7694 14.1039 55.7773 13.7055 53.2275C14.9007 52.4307 18.0879 50.6777 20.9565 53.5463C22.6298 55.2196 24.4624 55.7773 26.1357 55.7773C27.0122 55.7773 27.8887 55.618 28.6059 55.3789C27.1716 56.8132 24.6218 57.7694 21.7533 57.7694ZM27.8091 45.8969C25.7373 45.0204 23.9844 43.6658 22.9485 42.0722C22.1517 40.8769 21.833 39.602 22.072 38.5662C23.5063 38.2474 27.0919 37.9287 28.6059 41.6737C29.9605 45.0204 32.5899 46.1359 34.9804 46.3749C34.6616 46.5343 34.2632 46.614 33.7852 46.6937C32.0322 47.0921 29.8808 46.7733 27.8091 45.8969ZM45.4983 54.5821C42.6298 57.4506 38.7254 58.5662 36.574 57.1319C36.813 55.6976 37.9286 52.1917 41.9126 52.1917C45.4983 52.1917 47.57 50.1996 48.6856 48.0482C48.6856 48.2076 48.6856 48.2873 48.6856 48.4467C48.5262 48.8451 48.4465 49.3231 48.4465 49.7216C47.9684 51.3949 46.9326 53.1478 45.4983 54.5821ZM56.574 56.6538C53.2274 55.2196 50.8369 52.5104 50.8369 50.1996C50.9166 49.8809 50.9963 49.6419 50.9963 49.4028C52.5103 49.0841 55.9365 48.8451 57.4505 52.5104C58.8051 55.7773 61.4346 56.9726 63.825 57.2116C61.9126 57.849 59.1238 57.7694 56.574 56.6538Z" fill="#6BB7CC"/>
<path d="M52.4305 36.0951C56.4942 31.3939 55.9364 27.0114 54.7412 24.1429C53.9444 22.2305 52.7492 20.5572 51.2352 19.123C50.7571 18.6449 49.9603 18.7246 49.5619 19.2026C49.0838 19.6807 49.1635 20.4775 49.6416 20.8759C49.9603 21.115 56.8129 27.2505 50.5978 34.4218C50.4384 34.6608 50.2791 34.8999 50.2791 35.2186C50.2791 35.856 50.8368 36.4138 51.4743 36.4138C51.8727 36.4935 52.1914 36.4138 52.4305 36.0951Z" fill="#6BB7CC"/>
<path d="M40.6375 17.131C40.6375 13.7047 45.3387 12.9079 45.3387 12.9079C45.9762 12.8282 46.4542 12.1908 46.3746 11.5533C46.2949 10.9159 45.6574 10.4378 45.02 10.5175C42.6295 10.9159 38.2471 12.7486 38.2471 17.131C38.2471 19.9199 40.0797 21.5932 41.753 23.1071C43.5857 24.7007 45.0997 26.135 44.7809 29.0035C44.2232 33.625 39.6813 33.625 39.522 33.625C38.8845 33.625 38.3268 34.1828 38.3268 34.8203C38.3268 35.4577 38.8845 36.0155 39.522 36.0155C41.9124 36.0155 46.5339 34.5812 47.0917 29.2426C47.5698 25.0991 45.1793 22.9478 43.267 21.2744C41.6734 19.7605 40.6375 18.8043 40.6375 17.131Z" fill="#6BB7CC"/>
<path d="M40.6374 7.88815C40.4781 7.2507 39.8406 6.8523 39.2032 6.93198C35.2191 8.04752 32.1912 11.3144 31.2351 15.3782C29.8805 21.1152 34.2629 25.0993 34.4223 25.2587C34.9004 25.5774 35.5378 25.5774 35.9362 25.179C36.4143 24.7009 36.4143 23.9838 36.0159 23.5057C35.8566 23.3463 32.51 20.2388 33.5458 15.936C34.2629 12.8284 36.6534 10.2786 39.761 9.32242C40.3187 9.16305 40.7968 8.5256 40.6374 7.88815Z" fill="#6BB7CC"/>
</svg>
