<svg width="112" height="112" viewBox="0 0 112 112" fill="none" xmlns="http://www.w3.org/2000/svg">
<path d="M100.733 54.6609C103.299 52.9876 104.972 50.3103 104.972 47.1868C104.972 42.1669 100.51 38.1509 95.0436 38.1509H68.8284C70.0555 35.8083 71.2826 32.0155 71.0595 26.3262C70.3902 14.6131 63.3623 8.58919 59.2348 6.91589C56.7806 5.9119 54.2149 6.13501 52.2069 7.58521C50.1989 8.92385 47.9679 12.2705 48.6372 19.8561C49.3065 27.6649 39.2667 36.2545 34.3583 39.9358V36.9238C34.3583 36.0314 33.5774 35.2505 32.685 35.2505H10.4858C9.59338 35.2505 8.8125 36.0314 8.8125 36.9238V97.386C8.8125 98.2784 9.59338 99.0593 10.4858 99.0593H32.685C33.5774 99.0593 34.3583 98.2784 34.3583 97.386V94.374C40.7169 96.6051 58.4539 102.741 67.1551 103.075H84.7806C90.2468 103.075 94.5974 98.8362 94.5974 93.5932C94.5974 91.139 93.7049 89.0195 92.1432 87.3462C96.8284 86.5653 100.398 82.7725 100.398 77.9756C100.398 75.5215 99.3942 73.1788 97.7209 71.5055C101.848 70.39 104.972 66.7087 104.972 62.3581C104.972 59.2346 103.299 56.3342 100.733 54.6609ZM12.1591 95.6011V38.5972H31.0117V43.0593V43.1709V91.8083V91.9199V95.6011H12.1591ZM95.0436 68.6051H86.4539H84.7806C83.8882 68.6051 83.1073 69.386 83.1073 70.2784C83.1073 71.1709 83.8882 71.9517 84.7806 71.9517H90.5814C94.1511 71.9517 97.1631 74.7406 97.1631 78.0872C97.1631 81.4338 94.2627 84.2226 90.5814 84.2226H84.7806H78.6452C77.7527 84.2226 76.9719 85.0035 76.9719 85.896C76.9719 86.7884 77.7527 87.5693 78.6452 87.5693H84.7806C88.3503 87.5693 91.2507 90.3581 91.2507 93.7047C91.2507 97.0513 88.3503 99.8402 84.7806 99.8402L67.2667 99.7286C58.5655 99.394 39.1551 92.5892 34.3583 90.8043V44.0633C37.928 41.6091 52.8762 30.6768 51.9838 19.633C51.6491 14.9478 52.43 11.6011 54.2149 10.2625C55.7766 9.14696 57.4499 9.81628 58.0077 9.92784C61.3543 11.378 67.2667 16.5095 67.7129 26.4378C68.1591 35.139 64.5894 38.3741 64.4778 38.4856C63.9201 38.9318 63.697 39.7127 64.0316 40.382C64.2547 41.0513 64.924 41.4976 65.5934 41.4976H95.1551C98.7248 41.4976 101.737 44.0633 101.737 47.1868C101.737 50.3103 98.8364 52.876 95.1551 52.876H88.0157C87.1233 52.876 86.3424 53.6569 86.3424 54.5494C86.3424 55.4418 87.1233 56.2227 88.0157 56.2227H95.1551C98.7248 56.2227 101.737 59.0115 101.737 62.3581C101.625 65.8163 98.7248 68.6051 95.0436 68.6051Z" fill="#6BB7CC"/>
</svg>
