<svg width="112" height="112" viewBox="0 0 112 112" fill="none" xmlns="http://www.w3.org/2000/svg">
<path d="M44.0635 95.49C48.5257 97.9441 52.8763 99.1712 56.8922 99.1712C60.3504 99.1712 63.4739 98.2788 66.3743 96.4939L76.8603 90.0238C77.195 89.8007 77.5296 89.4661 77.6412 89.0198C77.7528 88.5736 77.6412 88.1274 77.4181 87.7927L68.3822 73.0676C68.1591 72.733 67.8245 72.3983 67.3783 72.2868C66.932 72.1752 66.4858 72.2868 66.1512 72.5099L55.5536 78.98C53.8802 79.984 51.8723 80.3186 49.8643 79.8724C47.8563 79.4262 46.183 78.3107 45.1791 76.6374L30.6771 53.5457C28.5575 50.1991 29.6731 45.737 33.0197 43.729L43.952 36.9242C44.7328 36.478 44.9559 35.3625 44.5097 34.5816L35.4739 19.8565C35.0277 19.0756 33.9121 18.8525 33.1312 19.2987L22.199 26.1035C10.0396 33.5776 10.3743 53.4342 23.203 74.1832C29.1153 83.7768 36.4779 91.2509 44.0635 95.49ZM23.9838 28.8923L33.4659 22.98L40.8285 34.8047L31.2348 40.8286C26.3265 43.8405 24.7647 50.3107 27.7767 55.3306L42.1671 78.6453C43.6173 80.988 46.0715 82.6613 48.9719 83.3306C51.8723 83.9999 54.7727 83.4421 57.1153 81.9919L66.2627 76.3027L73.6253 88.239L64.5894 93.8167C58.0077 97.9441 50.6452 95.3784 45.6253 92.7011C38.5974 88.7967 31.5695 81.5457 25.9918 72.5099C14.2787 53.3226 13.3862 35.474 23.9838 28.8923Z" fill="#6BB7CC"/>
<path d="M55.3307 37.4814C60.7968 37.816 65.5937 40.6049 68.4941 45.067C71.2829 49.4176 71.9522 54.6607 70.3905 59.569C70.0558 60.4615 70.6136 61.3539 71.3944 61.6885C71.6176 61.8001 71.7291 61.8001 71.9522 61.8001C72.6215 61.8001 73.2909 61.3539 73.514 60.6846C75.5219 54.7722 74.6295 48.4136 71.2829 43.2822C67.8247 37.9276 61.9124 34.4694 55.5538 34.1348C54.6614 34.1348 53.8805 34.8041 53.769 35.6965C53.6574 36.5889 54.4383 37.3698 55.3307 37.4814Z" fill="#6BB7CC"/>
<path d="M57.6735 24.9877C66.4862 25.9917 74.1835 30.7885 78.9803 38.151C83.6655 45.2905 85.0042 54.1032 82.55 62.3582C82.3269 63.2506 82.7731 64.1431 83.6655 64.4777C83.7771 64.4777 84.0002 64.5893 84.1117 64.5893C84.8926 64.5893 85.5619 64.1431 85.6735 63.3622C88.3508 54.2148 86.789 44.398 81.6575 36.4777C76.4145 28.1112 67.8249 22.7566 58.0081 21.6411C57.1157 21.5295 56.2233 22.1988 56.1117 23.0913C56.0002 23.9837 56.7811 24.8761 57.6735 24.9877Z" fill="#6BB7CC"/>
<path d="M59.9043 14.0558C71.5058 15.7291 81.8803 22.3108 88.3505 32.1275C94.5975 41.7212 96.4939 53.6574 93.4819 64.8128C93.2588 65.7052 93.8166 66.5977 94.709 66.8208C94.8206 66.8208 95.0437 66.9323 95.1552 66.9323C95.9361 66.9323 96.6054 66.4861 96.717 65.7052C99.952 53.6574 97.9441 40.7172 91.1393 30.3427C84.223 19.6335 72.956 12.4941 60.3505 10.8208C59.458 10.7092 58.5656 11.3785 58.4541 12.271C58.3425 13.0518 59.0118 13.9443 59.9043 14.0558Z" fill="#6BB7CC"/>
</svg>
