<svg width="112" height="112" viewBox="0 0 112 112" fill="none" xmlns="http://www.w3.org/2000/svg">
<path d="M105.084 20.5255C104.749 20.1908 104.303 19.9677 103.857 19.9677H24.8765L21.6415 9.14701C21.4183 8.47769 20.749 7.91992 20.0797 7.91992H7.69723C6.8048 7.91992 6.02393 8.7008 6.02393 9.59323C6.02393 10.4857 6.8048 11.2665 7.69723 11.2665H18.8526L39.1554 79.4259L41.7211 88.0155C40.1594 89.5773 39.1554 91.8084 39.1554 94.2626C39.1554 99.0594 43.0598 103.075 47.8566 103.075C52.5419 103.075 56.3347 99.394 56.5578 94.7088H78.5339C78.5339 94.8203 78.5339 94.8203 78.5339 94.9319C78.5339 99.7287 82.4383 103.633 87.2351 103.633C92.0319 103.633 95.9363 99.7287 95.9363 94.9319C95.9363 90.1351 92.0319 86.2307 87.2351 86.2307C83.6654 86.2307 80.5419 88.3502 79.2032 91.4737H56.1116C55.6654 90.2466 54.996 89.1311 54.1036 88.2386C52.4303 86.5653 50.3108 85.6729 47.9681 85.6729C46.8526 85.6729 45.7371 85.896 44.7331 86.3422L43.0598 80.8761H95.1554C95.9363 80.8761 96.7172 80.3183 96.8287 79.4259L105.641 22.0873C105.53 21.3064 105.418 20.8602 105.084 20.5255ZM87.2351 89.4657C90.247 89.4657 92.5897 91.9199 92.5897 94.8203C92.5897 97.7207 90.1355 100.175 87.2351 100.175C84.3347 100.175 81.8805 97.7207 81.8805 94.8203C81.8805 91.9199 84.3347 89.4657 87.2351 89.4657ZM47.8566 88.7964C49.3068 88.7964 50.6454 89.3542 51.6494 90.3582C52.6534 91.3622 53.2112 92.7008 53.2112 94.151C53.2112 97.163 50.757 99.6171 47.8566 99.6171C44.8446 99.6171 42.502 97.163 42.502 94.151C42.502 91.2506 44.8446 88.7964 47.8566 88.7964ZM93.5937 77.3064H42.0558L38.9323 66.5972C38.9323 66.4857 38.8207 66.3741 38.7092 66.2626L25.8805 23.2028H101.849L93.5937 77.3064Z" fill="#6BB7CC"/>
</svg>
